Kablammov0.12-A.ufo
<glyph name="exclam" format="2">
  <advance width="345"/>
  <unicode hex="0021"/>
  <outline>
    <contour>
      <point x="135" y="284" type="curve" smooth="yes"/>
      <point x="137" y="244"/>
      <point x="184" y="245"/>
      <point x="189" y="278" type="curve" smooth="yes"/>
      <point x="210" y="419"/>
      <point x="232" y="598"/>
      <point x="243" y="703" type="curve" smooth="yes"/>
      <point x="252" y="790"/>
      <point x="134" y="797"/>
      <point x="132" y="718" type="curve" smooth="yes"/>
      <point x="131" y="690"/>
      <point x="131" y="659"/>
      <point x="130" y="627" type="curve" smooth="yes"/>
      <point x="130" y="616"/>
      <point x="130" y="605"/>
      <point x="130" y="594" type="curve" smooth="yes"/>
      <point x="130" y="582"/>
      <point x="130" y="570"/>
      <point x="130" y="558" type="curve" smooth="yes"/>
      <point x="130" y="547"/>
      <point x="130" y="535"/>
      <point x="130" y="524" type="curve" smooth="yes"/>
      <point x="130" y="512"/>
      <point x="130" y="500"/>
      <point x="130" y="488" type="curve" smooth="yes"/>
      <point x="130" y="474"/>
      <point x="130" y="460"/>
      <point x="131" y="446" type="curve" smooth="yes"/>
      <point x="131" y="391"/>
      <point x="133" y="336"/>
    </contour>
    <contour>
      <point x="156" y="-5" type="curve" smooth="yes"/>
      <point x="212" y="-5"/>
      <point x="245" y="32"/>
      <point x="245" y="91" type="curve" smooth="yes"/>
      <point x="245" y="137"/>
      <point x="209" y="169"/>
      <point x="154" y="169" type="curve" smooth="yes"/>
      <point x="102" y="169"/>
      <point x="68" y="137"/>
      <point x="68" y="79" type="curve" smooth="yes"/>
      <point x="68" y="25"/>
      <point x="101" y="-5"/>
    </contour>
    <contour>
      <point x="105" y="633" type="curve" smooth="yes"/>
      <point x="49" y="640"/>
      <point x="21" y="642"/>
      <point x="16" y="609" type="curve" smooth="yes"/>
      <point x="11" y="577"/>
      <point x="34" y="567"/>
      <point x="106" y="557" type="curve" smooth="yes"/>
      <point x="144" y="552"/>
      <point x="196" y="546"/>
      <point x="237" y="542" type="curve" smooth="yes"/>
      <point x="279" y="538"/>
      <point x="301" y="538"/>
      <point x="305" y="572" type="curve" smooth="yes"/>
      <point x="308" y="596"/>
      <point x="295" y="601"/>
      <point x="240" y="611" type="curve" smooth="yes"/>
      <point x="198" y="619"/>
      <point x="151" y="627"/>
    </contour>
    <contour>
      <point x="131" y="458" type="curve" smooth="yes"/>
      <point x="75" y="454"/>
      <point x="53" y="447"/>
      <point x="55" y="421" type="curve" smooth="yes"/>
      <point x="57" y="392"/>
      <point x="74" y="390"/>
      <point x="126" y="388" type="curve" smooth="yes"/>
      <point x="151" y="387"/>
      <point x="197" y="388"/>
      <point x="225" y="390" type="curve" smooth="yes"/>
      <point x="299" y="395"/>
      <point x="320" y="397"/>
      <point x="318" y="430" type="curve" smooth="yes"/>
      <point x="316" y="463"/>
      <point x="294" y="462"/>
      <point x="227" y="462" type="curve" smooth="yes"/>
      <point x="187" y="462"/>
      <point x="164" y="461"/>
    </contour>
  </outline>
</glyph>
<glyph name="quotedbl" format="2">
  <advance width="391"/>
  <unicode hex="0022"/>
  <outline>
    <contour>
      <point x="53" y="448" type="curve" smooth="yes"/>
      <point x="58" y="415"/>
      <point x="75" y="393"/>
      <point x="104" y="393" type="curve" smooth="yes"/>
      <point x="134" y="393"/>
      <point x="156" y="410"/>
      <point x="159" y="457" type="curve" smooth="yes"/>
      <point x="162" y="499"/>
      <point x="165" y="572"/>
      <point x="164" y="625" type="curve" smooth="yes"/>
      <point x="162" y="712"/>
      <point x="143" y="746"/>
      <point x="95" y="746" type="curve" smooth="yes"/>
      <point x="51" y="746"/>
      <point x="33" y="713"/>
      <point x="36" y="652" type="curve" smooth="yes"/>
      <point x="37" y="628"/>
      <point x="38" y="613"/>
      <point x="40" y="597" type="curve"/>
      <point x="99" y="601"/>
      <point x="114" y="600"/>
      <point x="117" y="573" type="curve" smooth="yes"/>
      <point x="120" y="542"/>
      <point x="97" y="539"/>
      <point x="44" y="535" type="curve"/>
      <point x="47" y="503"/>
      <point x="50" y="468"/>
    </contour>
    <contour>
      <point x="234" y="423" type="curve" smooth="yes"/>
      <point x="237" y="377"/>
      <point x="256" y="366"/>
      <point x="278" y="366" type="curve" smooth="yes"/>
      <point x="299" y="366"/>
      <point x="322" y="378"/>
      <point x="332" y="423" type="curve" smooth="yes"/>
      <point x="346" y="487"/>
      <point x="357" y="557"/>
      <point x="367" y="622" type="curve" smooth="yes"/>
      <point x="379" y="700"/>
      <point x="334" y="730"/>
      <point x="294" y="730" type="curve" smooth="yes"/>
      <point x="253" y="730"/>
      <point x="220" y="708"/>
      <point x="222" y="648" type="curve" smooth="yes"/>
      <point x="222" y="644"/>
      <point x="222" y="641"/>
      <point x="222" y="637" type="curve"/>
      <point x="289" y="633"/>
      <point x="312" y="631"/>
      <point x="313" y="601" type="curve" smooth="yes"/>
      <point x="314" y="573"/>
      <point x="293" y="572"/>
      <point x="225" y="573" type="curve"/>
      <point x="225" y="561"/>
      <point x="226" y="549"/>
      <point x="227" y="537" type="curve"/>
      <point x="292" y="540"/>
      <point x="308" y="535"/>
      <point x="310" y="514" type="curve" smooth="yes"/>
      <point x="313" y="488"/>
      <point x="294" y="481"/>
      <point x="232" y="464" type="curve"/>
      <point x="232" y="450"/>
      <point x="233" y="437"/>
    </contour>
  </outline>
</glyph>
<glyph name="numbersign" format="2">
  <advance width="743"/>
  <unicode hex="0023"/>
  <outline>
    <contour>
      <point x="267" y="699" type="curve" smooth="yes"/>
      <point x="215" y="478"/>
      <point x="167" y="256"/>
      <point x="121" y="35" type="curve" smooth="yes"/>
      <point x="113" y="-3"/>
      <point x="119" y="-23"/>
      <point x="139" y="-27" type="curve" smooth="yes"/>
      <point x="165" y="-33"/>
      <point x="186" y="-20"/>
      <point x="196" y="18" type="curve" smooth="yes"/>
      <point x="256" y="237"/>
      <point x="314" y="456"/>
      <point x="368" y="675" type="curve" smooth="yes"/>
      <point x="378" y="716"/>
      <point x="366" y="738"/>
      <point x="330" y="748" type="curve" smooth="yes"/>
      <point x="300" y="756"/>
      <point x="277" y="740"/>
    </contour>
    <contour>
      <point x="521" y="635" type="curve" smooth="yes"/>
      <point x="476" y="438"/>
      <point x="433" y="241"/>
      <point x="394" y="42" type="curve" smooth="yes"/>
      <point x="386" y="1"/>
      <point x="402" y="-18"/>
      <point x="431" y="-24" type="curve" smooth="yes"/>
      <point x="456" y="-29"/>
      <point x="478" y="-15"/>
      <point x="485" y="20" type="curve" smooth="yes"/>
      <point x="526" y="219"/>
      <point x="565" y="416"/>
      <point x="602" y="613" type="curve" smooth="yes"/>
      <point x="611" y="660"/>
      <point x="595" y="676"/>
      <point x="573" y="679" type="curve" smooth="yes"/>
      <point x="551" y="681"/>
      <point x="529" y="672"/>
    </contour>
    <contour>
      <point x="129" y="495" type="curve" smooth="yes"/>
      <point x="95" y="491"/>
      <point x="81" y="478"/>
      <point x="82" y="452" type="curve" smooth="yes"/>
      <point x="83" y="426"/>
      <point x="100" y="411"/>
      <point x="136" y="413" type="curve" smooth="yes"/>
      <point x="314" y="422"/>
      <point x="495" y="434"/>
      <point x="677" y="447" type="curve" smooth="yes"/>
      <point x="715" y="450"/>
      <point x="734" y="472"/>
      <point x="730" y="504" type="curve" smooth="yes"/>
      <point x="725" y="537"/>
      <point x="710" y="550"/>
      <point x="670" y="547" type="curve" smooth="yes"/>
      <point x="491" y="532"/>
      <point x="310" y="514"/>
    </contour>
    <contour>
      <point x="93" y="283" type="curve" smooth="yes"/>
      <point x="53" y="287"/>
      <point x="33" y="273"/>
      <point x="29" y="244" type="curve" smooth="yes"/>
      <point x="25" y="214"/>
      <point x="37" y="189"/>
      <point x="77" y="184" type="curve" smooth="yes"/>
      <point x="263" y="163"/>
      <point x="449" y="147"/>
      <point x="633" y="134" type="curve" smooth="yes"/>
      <point x="670" y="131"/>
      <point x="686" y="146"/>
      <point x="687" y="174" type="curve" smooth="yes"/>
      <point x="688" y="199"/>
      <point x="676" y="218"/>
      <point x="644" y="222" type="curve" smooth="yes"/>
      <point x="463" y="244"/>
      <point x="280" y="265"/>
    </contour>
  </outline>
</glyph>
<glyph name="quotesingle" format="2">
  <advance width="203"/>
  <unicode hex="0027"/>
  <outline>
    <contour>
      <point x="58" y="424" type="curve" smooth="yes"/>
      <point x="63" y="389"/>
      <point x="76" y="377"/>
      <point x="96" y="377" type="curve" smooth="yes"/>
      <point x="122" y="377"/>
      <point x="139" y="391"/>
      <point x="143" y="420" type="curve" smooth="yes"/>
      <point x="154" y="493"/>
      <point x="164" y="566"/>
      <point x="173" y="637" type="curve" smooth="yes"/>
      <point x="182" y="708"/>
      <point x="150" y="737"/>
      <point x="105" y="737" type="curve" smooth="yes"/>
      <point x="67" y="737"/>
      <point x="31" y="708"/>
      <point x="36" y="644" type="curve" smooth="yes"/>
      <point x="37" y="636"/>
      <point x="37" y="628"/>
      <point x="38" y="620" type="curve"/>
      <point x="104" y="629"/>
      <point x="122" y="628"/>
      <point x="125" y="596" type="curve" smooth="yes"/>
      <point x="128" y="560"/>
      <point x="107" y="557"/>
      <point x="44" y="558" type="curve"/>
      <point x="48" y="514"/>
      <point x="53" y="466"/>
    </contour>
  </outline>
</glyph>
<glyph name="parenleft" format="2">
  <advance width="367"/>
  <unicode hex="0028"/>
  <outline>
    <contour>
      <point x="77" y="286" type="curve" smooth="yes"/>
      <point x="77" y="59"/>
      <point x="185" y="-88"/>
      <point x="275" y="-132" type="curve" smooth="yes"/>
      <point x="323" y="-156"/>
      <point x="364" y="-97"/>
      <point x="321" y="-65" type="curve" smooth="yes"/>
      <point x="223" y="7"/>
      <point x="172" y="125"/>
      <point x="172" y="281" type="curve" smooth="yes"/>
      <point x="172" y="464"/>
      <point x="231" y="597"/>
      <point x="348" y="743" type="curve" smooth="yes"/>
      <point x="401" y="808"/>
      <point x="321" y="878"/>
      <point x="258" y="804" type="curve" smooth="yes"/>
      <point x="145" y="672"/>
      <point x="77" y="485"/>
    </contour>
    <contour>
      <point x="70" y="209" type="curve" smooth="yes"/>
      <point x="6" y="185"/>
      <point x="-5" y="172"/>
      <point x="5" y="144" type="curve" smooth="yes"/>
      <point x="16" y="112"/>
      <point x="30" y="115"/>
      <point x="94" y="134" type="curve" smooth="yes"/>
      <point x="131" y="145"/>
      <point x="172" y="158"/>
      <point x="214" y="174" type="curve" smooth="yes"/>
      <point x="285" y="199"/>
      <point x="314" y="210"/>
      <point x="300" y="244" type="curve" smooth="yes"/>
      <point x="289" y="272"/>
      <point x="267" y="274"/>
      <point x="184" y="248" type="curve" smooth="yes"/>
      <point x="146" y="236"/>
      <point x="108" y="223"/>
    </contour>
    <contour>
      <point x="114" y="7" type="curve" smooth="yes"/>
      <point x="45" y="-42"/>
      <point x="34" y="-60"/>
      <point x="50" y="-85" type="curve" smooth="yes"/>
      <point x="65" y="-108"/>
      <point x="85" y="-111"/>
      <point x="151" y="-66" type="curve" smooth="yes"/>
      <point x="190" y="-39"/>
      <point x="227" y="-15"/>
      <point x="253" y="4" type="curve" smooth="yes"/>
      <point x="312" y="47"/>
      <point x="325" y="71"/>
      <point x="308" y="95" type="curve" smooth="yes"/>
      <point x="291" y="119"/>
      <point x="271" y="110"/>
      <point x="217" y="77" type="curve" smooth="yes"/>
      <point x="184" y="57"/>
      <point x="153" y="35"/>
    </contour>
    <contour>
      <point x="248" y="721" type="curve" smooth="yes"/>
      <point x="238" y="726"/>
      <point x="223" y="713"/>
      <point x="216" y="696" type="curve" smooth="yes"/>
      <point x="208" y="675"/>
      <point x="209" y="666"/>
      <point x="225" y="658" type="curve" smooth="yes"/>
      <point x="229" y="655"/>
      <point x="234" y="655"/>
      <point x="238" y="652" type="curve" smooth="yes"/>
      <point x="246" y="648"/>
      <point x="261" y="658"/>
      <point x="270" y="677" type="curve" smooth="yes"/>
      <point x="277" y="691"/>
      <point x="282" y="703"/>
      <point x="270" y="711" type="curve" smooth="yes"/>
      <point x="261" y="718"/>
      <point x="255" y="719"/>
    </contour>
  </outline>
</glyph>
<glyph name="asterisk" format="2">
  <advance width="539"/>
  <unicode hex="002A"/>
  <outline>
    <contour>
      <point x="71" y="504" type="curve" smooth="yes"/>
      <point x="122" y="493"/>
      <point x="177" y="493"/>
      <point x="221" y="481" type="curve" smooth="yes"/>
      <point x="237" y="476"/>
      <point x="241" y="467"/>
      <point x="232" y="459" type="curve" smooth="yes"/>
      <point x="214" y="444"/>
      <point x="191" y="431"/>
      <point x="171" y="414" type="curve" smooth="yes"/>
      <point x="142" y="389"/>
      <point x="145" y="353"/>
      <point x="166" y="334" type="curve" smooth="yes"/>
      <point x="193" y="311"/>
      <point x="224" y="316"/>
      <point x="246" y="352" type="curve" smooth="yes"/>
      <point x="259" y="373"/>
      <point x="266" y="396"/>
      <point x="279" y="418" type="curve" smooth="yes"/>
      <point x="286" y="430"/>
      <point x="297" y="429"/>
      <point x="302" y="415" type="curve" smooth="yes"/>
      <point x="319" y="371"/>
      <point x="329" y="330"/>
      <point x="344" y="288" type="curve" smooth="yes"/>
      <point x="360" y="245"/>
      <point x="396" y="231"/>
      <point x="428" y="251" type="curve" smooth="yes"/>
      <point x="461" y="270"/>
      <point x="470" y="308"/>
      <point x="443" y="340" type="curve" smooth="yes"/>
      <point x="414" y="376"/>
      <point x="380" y="406"/>
      <point x="351" y="444" type="curve" smooth="yes"/>
      <point x="342" y="456"/>
      <point x="345" y="466"/>
      <point x="359" y="467" type="curve" smooth="yes"/>
      <point x="395" y="469"/>
      <point x="429" y="467"/>
      <point x="464" y="470" type="curve" smooth="yes"/>
      <point x="498" y="473"/>
      <point x="522" y="494"/>
      <point x="515" y="530" type="curve" smooth="yes"/>
      <point x="506" y="568"/>
      <point x="477" y="577"/>
      <point x="449" y="566" type="curve" smooth="yes"/>
      <point x="417" y="554"/>
      <point x="387" y="537"/>
      <point x="354" y="526" type="curve" smooth="yes"/>
      <point x="341" y="522"/>
      <point x="334" y="528"/>
      <point x="336" y="541" type="curve" smooth="yes"/>
      <point x="341" y="579"/>
      <point x="351" y="620"/>
      <point x="357" y="662" type="curve" smooth="yes"/>
      <point x="363" y="707"/>
      <point x="346" y="737"/>
      <point x="306" y="737" type="curve" smooth="yes"/>
      <point x="266" y="737"/>
      <point x="244" y="710"/>
      <point x="250" y="668" type="curve" smooth="yes"/>
      <point x="256" y="631"/>
      <point x="266" y="595"/>
      <point x="271" y="558" type="curve" smooth="yes"/>
      <point x="273" y="538"/>
      <point x="261" y="530"/>
      <point x="244" y="536" type="curve" smooth="yes"/>
      <point x="197" y="553"/>
      <point x="151" y="587"/>
      <point x="102" y="605" type="curve" smooth="yes"/>
      <point x="71" y="616"/>
      <point x="39" y="615"/>
      <point x="25" y="577" type="curve" smooth="yes"/>
      <point x="13" y="545"/>
      <point x="29" y="513"/>
    </contour>
  </outline>
</glyph>
<glyph name="plus" format="2">
  <advance width="413"/>
  <unicode hex="002B"/>
  <outline>
    <contour>
      <point x="235" y="157" type="curve" smooth="yes"/>
      <point x="243" y="261"/>
      <point x="249" y="363"/>
      <point x="253" y="465" type="curve" smooth="yes"/>
      <point x="255" y="507"/>
      <point x="233" y="519"/>
      <point x="213" y="519" type="curve" smooth="yes"/>
      <point x="195" y="519"/>
      <point x="173" y="509"/>
      <point x="169" y="467" type="curve" smooth="yes"/>
      <point x="158" y="364"/>
      <point x="148" y="260"/>
      <point x="141" y="157" type="curve" smooth="yes"/>
      <point x="138" y="114"/>
      <point x="160" y="103"/>
      <point x="182" y="101" type="curve" smooth="yes"/>
      <point x="206" y="100"/>
      <point x="232" y="112"/>
    </contour>
    <contour>
      <point x="76" y="253" type="curve" smooth="yes"/>
      <point x="164" y="256"/>
      <point x="252" y="261"/>
      <point x="340" y="268" type="curve" smooth="yes"/>
      <point x="384" y="271"/>
      <point x="394" y="296"/>
      <point x="393" y="319" type="curve" smooth="yes"/>
      <point x="391" y="340"/>
      <point x="378" y="364"/>
      <point x="334" y="360" type="curve" smooth="yes"/>
      <point x="246" y="353"/>
      <point x="159" y="344"/>
      <point x="71" y="333" type="curve" smooth="yes"/>
      <point x="28" y="328"/>
      <point x="19" y="305"/>
      <point x="21" y="287" type="curve" smooth="yes"/>
      <point x="23" y="269"/>
      <point x="35" y="252"/>
    </contour>
  </outline>
</glyph>
<glyph name="zero" format="2">
  <advance width="636"/>
  <unicode hex="0030"/>
  <guideline x="345" y="313" angle="32.5681"/>
  <guideline x="310" y="376" angle="211.3191"/>
  <outline>
    <contour>
      <point x="301" y="-14" type="curve" smooth="yes"/>
      <point x="483" y="-14"/>
      <point x="596" y="127"/>
      <point x="596" y="389" type="curve" smooth="yes"/>
      <point x="596" y="616"/>
      <point x="493" y="714"/>
      <point x="330" y="714" type="curve" smooth="yes"/>
      <point x="157" y="714"/>
      <point x="40" y="575"/>
      <point x="40" y="323" type="curve" smooth="yes"/>
      <point x="40" y="110"/>
      <point x="127" y="-14"/>
    </contour>
    <contour>
      <point x="318" y="645" type="curve" smooth="yes"/>
      <point x="367" y="645"/>
      <point x="431" y="621"/>
      <point x="431" y="492" type="curve" smooth="yes"/>
      <point x="431" y="350"/>
      <point x="359" y="105"/>
      <point x="226" y="105" type="curve" smooth="yes"/>
      <point x="154" y="105"/>
      <point x="119" y="190"/>
      <point x="119" y="332" type="curve" smooth="yes"/>
      <point x="119" y="507"/>
      <point x="192" y="645"/>
    </contour>
    <contour>
      <point x="261" y="304" type="curve" smooth="yes"/>
      <point x="299" y="304"/>
      <point x="329" y="335"/>
      <point x="329" y="369" type="curve" smooth="yes"/>
      <point x="329" y="402"/>
      <point x="300" y="426"/>
      <point x="266" y="426" type="curve" smooth="yes"/>
      <point x="233" y="426"/>
      <point x="207" y="404"/>
      <point x="207" y="371" type="curve" smooth="yes"/>
      <point x="207" y="337"/>
      <point x="228" y="304"/>
    </contour>
    <contour>
      <point x="398" y="298" type="curve"/>
      <point x="475" y="262"/>
      <point x="496" y="231"/>
      <point x="481" y="208" type="curve" smooth="yes"/>
      <point x="470" y="189"/>
      <point x="430" y="193"/>
      <point x="372" y="232" type="curve"/>
      <point x="384" y="256"/>
      <point x="391" y="277"/>
    </contour>
    <contour>
      <point x="427" y="426" type="curve"/>
      <point x="527" y="416"/>
      <point x="541" y="397"/>
      <point x="537" y="374" type="curve" smooth="yes"/>
      <point x="533" y="353"/>
      <point x="513" y="341"/>
      <point x="416" y="362" type="curve"/>
      <point x="421" y="387"/>
      <point x="423" y="399"/>
    </contour>
    <contour>
      <point x="138" y="692" type="line" smooth="yes"/>
      <point x="104" y="741"/>
      <point x="48" y="690"/>
      <point x="73" y="657" type="curve" smooth="yes"/>
      <point x="190" y="504" type="line" smooth="yes"/>
      <point x="216" y="470"/>
      <point x="269" y="502"/>
      <point x="240" y="544" type="curve" smooth="yes"/>
    </contour>
    <contour>
      <point x="86" y="185" type="line" smooth="yes"/>
      <point x="41" y="147"/>
      <point x="103" y="96"/>
      <point x="132" y="126" type="curve" smooth="yes"/>
      <point x="200" y="196" type="line" smooth="yes"/>
      <point x="235" y="232"/>
      <point x="190" y="274"/>
      <point x="154" y="243" type="curve" smooth="yes"/>
    </contour>
    <contour>
      <point x="97" y="484" type="line" smooth="yes"/>
      <point x="66" y="494"/>
      <point x="49" y="430"/>
      <point x="76" y="425" type="curve" smooth="yes"/>
      <point x="91" y="422" type="line" smooth="yes"/>
      <point x="119" y="416"/>
      <point x="135" y="472"/>
      <point x="110" y="480" type="curve" smooth="yes"/>
    </contour>
    <contour>
      <point x="255" y="108" type="curve"/>
      <point x="274" y="113"/>
      <point x="293" y="123"/>
      <point x="308" y="139" type="curve"/>
      <point x="303" y="134"/>
      <point x="297" y="128"/>
      <point x="283" y="120" type="curve" smooth="yes"/>
      <point x="271" y="113"/>
      <point x="259" y="109"/>
    </contour>
    <contour>
      <point x="171" y="125" type="curve"/>
      <point x="187" y="113"/>
      <point x="213" y="103"/>
      <point x="225" y="104" type="curve"/>
      <point x="221" y="104"/>
      <point x="218" y="104"/>
      <point x="203" y="108" type="curve" smooth="yes"/>
      <point x="189" y="112"/>
      <point x="175" y="120"/>
    </contour>
    <contour>
      <point x="119" y="357" type="curve"/>
      <point x="118" y="330"/>
      <point x="118" y="304"/>
      <point x="121" y="277" type="curve"/>
      <point x="120" y="286"/>
      <point x="119" y="288"/>
      <point x="119" y="315" type="curve" smooth="yes"/>
      <point x="119" y="326"/>
      <point x="119" y="352"/>
    </contour>
    <contour>
      <point x="130" y="453" type="curve"/>
      <point x="126" y="438"/>
      <point x="122" y="411"/>
      <point x="122" y="396" type="curve"/>
      <point x="123" y="403"/>
      <point x="124" y="413"/>
      <point x="125" y="424" type="curve" smooth="yes"/>
      <point x="127" y="441"/>
      <point x="128" y="445"/>
    </contour>
    <contour>
      <point x="395" y="615" type="curve"/>
      <point x="379" y="630"/>
      <point x="352" y="643"/>
      <point x="334" y="644" type="curve"/>
      <point x="344" y="644"/>
      <point x="348" y="644"/>
      <point x="366" y="635" type="curve" smooth="yes"/>
      <point x="382" y="627"/>
      <point x="387" y="624"/>
    </contour>
    <contour>
      <point x="302" y="645" type="curve"/>
      <point x="280" y="643"/>
      <point x="259" y="636"/>
      <point x="241" y="626" type="curve"/>
      <point x="244" y="629"/>
      <point x="246" y="630"/>
      <point x="270" y="638" type="curve" smooth="yes"/>
      <point x="286" y="644"/>
      <point x="292" y="645"/>
    </contour>
  </outline>
</glyph>
<glyph name="one" format="2">
  <advance width="473"/>
  <unicode hex="0031"/>
  <outline>
    <contour>
      <point x="306" y="654" type="line" smooth="yes"/>
      <point x="306" y="698"/>
      <point x="290" y="721"/>
      <point x="255" y="721" type="curve" smooth="yes"/>
      <point x="227" y="720"/>
      <point x="207" y="711"/>
      <point x="76" y="662" type="curve" smooth="yes"/>
      <point x="16" y="639"/>
      <point x="42" y="547"/>
      <point x="114" y="577" type="curve" smooth="yes"/>
      <point x="167" y="599" type="line" smooth="yes"/>
      <point x="209" y="617"/>
      <point x="222" y="602"/>
      <point x="222" y="563" type="curve" smooth="yes"/>
      <point x="218" y="225" type="line" smooth="yes"/>
      <point x="218" y="195"/>
      <point x="198" y="182"/>
      <point x="169" y="180" type="curve" smooth="yes"/>
      <point x="114" y="177" type="line" smooth="yes"/>
      <point x="-18" y="170"/>
      <point x="-5" y="-25"/>
      <point x="117" y="-18" type="curve" smooth="yes"/>
      <point x="375" y="-4" type="line" smooth="yes"/>
      <point x="480" y="2"/>
      <point x="484" y="177"/>
      <point x="366" y="183" type="curve" smooth="yes"/>
      <point x="328" y="185" type="line" smooth="yes"/>
      <point x="314" y="186"/>
      <point x="307" y="197"/>
      <point x="307" y="222" type="curve" smooth="yes"/>
    </contour>
    <contour>
      <point x="105" y="227" type="curve" smooth="yes"/>
      <point x="136" y="227"/>
      <point x="157" y="252"/>
      <point x="157" y="283" type="curve" smooth="yes"/>
      <point x="157" y="312"/>
      <point x="134" y="340"/>
      <point x="105" y="340" type="curve" smooth="yes"/>
      <point x="76" y="340"/>
      <point x="53" y="312"/>
      <point x="53" y="276" type="curve" smooth="yes"/>
      <point x="53" y="251"/>
      <point x="74" y="227"/>
    </contour>
    <contour>
      <point x="307" y="431" type="curve"/>
      <point x="307" y="359" type="line"/>
      <point x="307" y="359"/>
      <point x="307" y="377"/>
      <point x="307" y="398" type="curve" smooth="yes"/>
      <point x="306" y="415"/>
      <point x="307" y="431"/>
    </contour>
    <contour>
      <point x="305" y="327" type="curve"/>
      <point x="306" y="245" type="line"/>
      <point x="306" y="245"/>
      <point x="306" y="259"/>
      <point x="306" y="287" type="curve" smooth="yes"/>
      <point x="306" y="315"/>
      <point x="305" y="327"/>
    </contour>
    <contour>
      <point x="161" y="-15" type="line"/>
      <point x="137" y="79"/>
      <point x="138" y="111"/>
      <point x="170" y="114" type="curve" smooth="yes"/>
      <point x="199" y="117"/>
      <point x="208" y="88"/>
      <point x="219" y="-12" type="curve"/>
    </contour>
    <contour>
      <point x="274" y="-9" type="line"/>
      <point x="280" y="74"/>
      <point x="296" y="89"/>
      <point x="318" y="87" type="curve" smooth="yes"/>
      <point x="340" y="86"/>
      <point x="352" y="66"/>
      <point x="337" y="-6" type="curve"/>
    </contour>
    <contour>
      <point x="222" y="345" type="curve"/>
      <point x="222" y="417" type="line"/>
      <point x="222" y="417"/>
      <point x="221" y="399"/>
      <point x="220" y="378" type="curve" smooth="yes"/>
      <point x="221" y="361"/>
      <point x="222" y="345"/>
    </contour>
    <contour>
      <point x="223" y="449" type="curve"/>
      <point x="223" y="531" type="line"/>
      <point x="223" y="531"/>
      <point x="223" y="517"/>
      <point x="222" y="489" type="curve" smooth="yes"/>
      <point x="223" y="461"/>
      <point x="223" y="449"/>
    </contour>
    <contour>
      <point x="264" y="490" type="line"/>
      <point x="154" y="474" type="line" smooth="yes"/>
      <point x="112" y="468"/>
      <point x="115" y="408"/>
      <point x="159" y="408" type="curve" smooth="yes"/>
      <point x="271" y="408" type="line"/>
    </contour>
    <contour>
      <point x="257" y="671" type="curve" smooth="yes"/>
      <point x="257" y="671"/>
      <point x="257" y="671"/>
      <point x="257" y="671" type="curve" smooth="yes"/>
      <point x="257" y="671"/>
      <point x="257" y="671"/>
      <point x="257" y="671" type="curve" smooth="yes"/>
      <point x="257" y="671"/>
      <point x="257" y="671"/>
      <point x="257" y="671" type="curve" smooth="yes"/>
      <point x="257" y="671"/>
      <point x="257" y="671"/>
    </contour>
    <contour>
      <point x="275" y="510" type="line"/>
      <point x="285" y="511" type="line" smooth="yes"/>
      <point x="309" y="513"/>
      <point x="302" y="573"/>
      <point x="274" y="570" type="curve" smooth="yes"/>
      <point x="264" y="569" type="line"/>
    </contour>
    <contour>
      <point x="108" y="120" type="curve" smooth="yes"/>
      <point x="108" y="120"/>
      <point x="108" y="120"/>
      <point x="108" y="120" type="curve" smooth="yes"/>
      <point x="108" y="120"/>
      <point x="108" y="120"/>
      <point x="108" y="120" type="curve" smooth="yes"/>
      <point x="108" y="120"/>
      <point x="108" y="120"/>
      <point x="108" y="120" type="curve" smooth="yes"/>
      <point x="108" y="120"/>
      <point x="108" y="120"/>
    </contour>
  </outline>
</glyph>
<glyph name="three" format="2">
  <advance width="489"/>
  <unicode hex="0033"/>
  <outline>
    <contour>
      <point x="230" y="-12" type="curve" smooth="yes"/>
      <point x="366" y="-12"/>
      <point x="459" y="62"/>
      <point x="459" y="188" type="curve" smooth="yes"/>
      <point x="459" y="356"/>
      <point x="236" y="334"/>
      <point x="236" y="371" type="curve" smooth="yes"/>
      <point x="236" y="379"/>
      <point x="242" y="385"/>
      <point x="253" y="393" type="curve" smooth="yes"/>
      <point x="416" y="509" type="line" smooth="yes"/>
      <point x="488" y="560"/>
      <point x="490" y="639"/>
      <point x="407" y="660" type="curve" smooth="yes"/>
      <point x="149" y="726" type="line" smooth="yes"/>
      <point x="22" y="759"/>
      <point x="-15" y="543"/>
      <point x="102" y="531" type="curve" smooth="yes"/>
      <point x="151" y="526"/>
      <point x="201" y="523"/>
      <point x="250" y="519" type="curve" smooth="yes"/>
      <point x="264" y="518"/>
      <point x="270" y="513"/>
      <point x="270" y="506" type="curve" smooth="yes"/>
      <point x="270" y="493"/>
      <point x="246" y="475"/>
      <point x="213" y="446" type="curve" smooth="yes"/>
      <point x="169" y="407"/>
      <point x="135" y="382"/>
      <point x="135" y="346" type="curve" smooth="yes"/>
      <point x="135" y="324"/>
      <point x="150" y="306"/>
      <point x="184" y="297" type="curve" smooth="yes"/>
      <point x="267" y="276"/>
      <point x="339" y="257"/>
      <point x="339" y="210" type="curve" smooth="yes"/>
      <point x="339" y="182"/>
      <point x="321" y="164"/>
      <point x="284" y="164" type="curve" smooth="yes"/>
      <point x="219" y="164"/>
      <point x="173" y="203"/>
      <point x="118" y="203" type="curve" smooth="yes"/>
      <point x="68" y="203"/>
      <point x="26" y="168"/>
      <point x="26" y="105" type="curve" smooth="yes"/>
      <point x="26" y="25"/>
      <point x="115" y="-12"/>
    </contour>
    <contour>
      <point x="127" y="64" type="curve" smooth="yes"/>
      <point x="104" y="64"/>
      <point x="84" y="82"/>
      <point x="84" y="105" type="curve" smooth="yes"/>
      <point x="84" y="128"/>
      <point x="107" y="146"/>
      <point x="130" y="146" type="curve" smooth="yes"/>
      <point x="153" y="146"/>
      <point x="167" y="126"/>
      <point x="167" y="103" type="curve" smooth="yes"/>
      <point x="167" y="80"/>
      <point x="150" y="64"/>
    </contour>
    <contour>
      <point x="253" y="39" type="curve" smooth="yes"/>
      <point x="231" y="39"/>
      <point x="214" y="58"/>
      <point x="214" y="80" type="curve" smooth="yes"/>
      <point x="214" y="101"/>
      <point x="227" y="117"/>
      <point x="251" y="117" type="curve" smooth="yes"/>
      <point x="272" y="117"/>
      <point x="287" y="101"/>
      <point x="287" y="80" type="curve" smooth="yes"/>
      <point x="287" y="58"/>
      <point x="276" y="39"/>
    </contour>
    <contour>
      <point x="181" y="718" type="curve"/>
      <point x="242" y="702" type="line"/>
      <point x="221" y="607"/>
      <point x="208" y="582"/>
      <point x="177" y="589" type="curve" smooth="yes"/>
      <point x="150" y="595"/>
      <point x="144" y="626"/>
    </contour>
    <contour>
      <point x="296" y="688" type="curve"/>
      <point x="356" y="673" type="line"/>
      <point x="343" y="591"/>
      <point x="328" y="575"/>
      <point x="305" y="578" type="curve" smooth="yes"/>
      <point x="285" y="581"/>
      <point x="274" y="606"/>
    </contour>
    <contour>
      <point x="192" y="308" type="curve" smooth="yes"/>
      <point x="217" y="308"/>
      <point x="233" y="328"/>
      <point x="233" y="360" type="curve" smooth="yes"/>
      <point x="233" y="387"/>
      <point x="211" y="396"/>
      <point x="186" y="396" type="curve" smooth="yes"/>
      <point x="161" y="396"/>
      <point x="143" y="382"/>
      <point x="143" y="360" type="curve" smooth="yes"/>
      <point x="143" y="332"/>
      <point x="167" y="308"/>
    </contour>
  </outline>
</glyph>
<glyph name="seven" format="2">
  <advance width="472"/>
  <unicode hex="0037"/>
  <outline>
    <contour>
      <point x="230" y="5" type="curve" smooth="yes"/>
      <point x="431" y="488" type="line" smooth="yes"/>
      <point x="490" y="630"/>
      <point x="457" y="704"/>
      <point x="312" y="691" type="curve" smooth="yes"/>
      <point x="77" y="670" type="line" smooth="yes"/>
      <point x="-12" y="662"/>
      <point x="-11" y="539"/>
      <point x="68" y="531" type="curve" smooth="yes"/>
      <point x="301" y="507" type="line" smooth="yes"/>
      <point x="335" y="503"/>
      <point x="340" y="486"/>
      <point x="325" y="448" type="curve" smooth="yes"/>
      <point x="155" y="33" type="line" smooth="yes"/>
      <point x="133" y="-21"/>
      <point x="207" y="-50"/>
    </contour>
    <contour>
      <point x="249" y="62" type="line"/>
      <point x="341" y="52" type="line" smooth="yes"/>
      <point x="393" y="46"/>
      <point x="400" y="120"/>
      <point x="349" y="124" type="curve" smooth="yes"/>
      <point x="277" y="129" type="line"/>
    </contour>
    <contour>
      <point x="323" y="296" type="line"/>
      <point x="413" y="263" type="line" smooth="yes"/>
      <point x="458" y="246"/>
      <point x="481" y="307"/>
      <point x="435" y="326" type="curve" smooth="yes"/>
      <point x="358" y="357" type="line"/>
    </contour>
    <contour>
      <point x="163" y="521" type="curve"/>
      <point x="107" y="527" type="line"/>
      <point x="102" y="589"/>
      <point x="111" y="613"/>
      <point x="135" y="615" type="curve" smooth="yes"/>
      <point x="155" y="617"/>
      <point x="169" y="600"/>
    </contour>
    <contour>
      <point x="286" y="509" type="curve"/>
      <point x="226" y="514" type="line"/>
      <point x="229" y="588"/>
      <point x="236" y="628"/>
      <point x="268" y="625" type="curve" smooth="yes"/>
      <point x="296" y="622"/>
      <point x="297" y="588"/>
    </contour>
    <contour>
      <point x="320" y="370" type="line"/>
      <point x="146" y="443" type="line" smooth="yes"/>
      <point x="98" y="463"/>
      <point x="68" y="391"/>
      <point x="113" y="374" type="curve" smooth="yes"/>
      <point x="292" y="308" type="line"/>
    </contour>
    <contour>
      <point x="186" y="3" type="curve" smooth="yes"/>
      <point x="186" y="3"/>
      <point x="186" y="3"/>
      <point x="186" y="3" type="curve" smooth="yes"/>
      <point x="186" y="3"/>
      <point x="186" y="3"/>
      <point x="186" y="3" type="curve" smooth="yes"/>
      <point x="186" y="3"/>
      <point x="186" y="3"/>
      <point x="186" y="3" type="curve" smooth="yes"/>
      <point x="186" y="3"/>
      <point x="186" y="3"/>
    </contour>
    <contour>
      <point x="173" y="13" type="curve" smooth="yes"/>
      <point x="173" y="13"/>
      <point x="173" y="13"/>
      <point x="173" y="13" type="curve" smooth="yes"/>
      <point x="173" y="13"/>
      <point x="173" y="13"/>
      <point x="173" y="13" type="curve" smooth="yes"/>
      <point x="173" y="13"/>
      <point x="173" y="13"/>
      <point x="173" y="13" type="curve" smooth="yes"/>
      <point x="173" y="13"/>
      <point x="173" y="13"/>
    </contour>
    <contour>
      <point x="260" y="182" type="line"/>
      <point x="268" y="180" type="line" smooth="yes"/>
      <point x="313" y="169"/>
      <point x="331" y="234"/>
      <point x="291" y="245" type="curve" smooth="yes"/>
      <point x="284" y="247" type="line"/>
    </contour>
    <contour>
      <point x="170" y="0" type="curve" smooth="yes"/>
      <point x="170" y="0"/>
      <point x="170" y="0"/>
      <point x="170" y="0" type="curve" smooth="yes"/>
      <point x="170" y="0"/>
      <point x="170" y="0"/>
      <point x="170" y="0" type="curve" smooth="yes"/>
      <point x="170" y="0"/>
      <point x="170" y="0"/>
      <point x="170" y="0" type="curve" smooth="yes"/>
      <point x="170" y="0"/>
      <point x="170" y="0"/>
    </contour>
    <contour>
      <point x="200" y="134" type="line"/>
      <point x="111" y="140" type="line" smooth="yes"/>
      <point x="71" y="143"/>
      <point x="62" y="81"/>
      <point x="105" y="77" type="curve" smooth="yes"/>
      <point x="174" y="70" type="line"/>
    </contour>
    <contour>
      <point x="250" y="256" type="line"/>
      <point x="162" y="277" type="line" smooth="yes"/>
      <point x="116" y="288"/>
      <point x="101" y="228"/>
      <point x="144" y="216" type="curve" smooth="yes"/>
      <point x="224" y="193" type="line"/>
    </contour>
    <contour>
      <point x="116" y="409" type="curve" smooth="yes"/>
      <point x="116" y="409"/>
      <point x="116" y="409"/>
      <point x="116" y="409" type="curve" smooth="yes"/>
      <point x="116" y="409"/>
      <point x="116" y="409"/>
      <point x="116" y="409" type="curve" smooth="yes"/>
      <point x="116" y="409"/>
      <point x="116" y="409"/>
      <point x="116" y="409" type="curve" smooth="yes"/>
      <point x="116" y="409"/>
      <point x="116" y="409"/>
    </contour>
  </outline>
</glyph>
<glyph name="colon" format="2">
  <advance width="276"/>
  <unicode hex="003A"/>
  <outline>
    <contour>
      <point x="132" y="-13" type="curve" smooth="yes"/>
      <point x="189" y="-13"/>
      <point x="226" y="26"/>
      <point x="226" y="83" type="curve" smooth="yes"/>
      <point x="226" y="142"/>
      <point x="196" y="185"/>
      <point x="138" y="185" type="curve" smooth="yes"/>
      <point x="82" y="185"/>
      <point x="45" y="150"/>
      <point x="45" y="91" type="curve" smooth="yes"/>
      <point x="45" y="24"/>
      <point x="77" y="-13"/>
    </contour>
    <contour>
      <point x="143" y="314" type="curve" smooth="yes"/>
      <point x="205" y="314"/>
      <point x="253" y="357"/>
      <point x="253" y="422" type="curve" smooth="yes"/>
      <point x="253" y="489"/>
      <point x="216" y="537"/>
      <point x="149" y="537" type="curve" smooth="yes"/>
      <point x="84" y="537"/>
      <point x="40" y="493"/>
      <point x="40" y="424" type="curve" smooth="yes"/>
      <point x="40" y="360"/>
      <point x="84" y="314"/>
    </contour>
    <contour>
      <point x="143" y="392" type="curve" smooth="yes"/>
      <point x="118" y="392"/>
      <point x="99" y="411"/>
      <point x="99" y="435" type="curve" smooth="yes"/>
      <point x="99" y="458"/>
      <point x="118" y="477"/>
      <point x="143" y="477" type="curve" smooth="yes"/>
      <point x="167" y="477"/>
      <point x="188" y="458"/>
      <point x="188" y="435" type="curve" smooth="yes"/>
      <point x="188" y="411"/>
      <point x="167" y="392"/>
    </contour>
    <contour>
      <point x="128" y="98" type="curve" smooth="yes"/>
      <point x="128" y="98"/>
      <point x="128" y="98"/>
      <point x="128" y="98" type="curve" smooth="yes"/>
      <point x="128" y="98"/>
      <point x="128" y="98"/>
      <point x="128" y="98" type="curve" smooth="yes"/>
      <point x="128" y="98"/>
      <point x="128" y="98"/>
      <point x="128" y="98" type="curve" smooth="yes"/>
      <point x="128" y="98"/>
      <point x="128" y="98"/>
    </contour>
  </outline>
</glyph>
<glyph name="less" format="2">
  <advance width="381"/>
  <unicode hex="003C"/>
  <outline>
    <contour>
      <point x="217" y="98" type="curve" smooth="yes"/>
      <point x="259" y="62"/>
      <point x="295" y="54"/>
      <point x="321" y="85" type="curve" smooth="yes"/>
      <point x="349" y="118"/>
      <point x="336" y="158"/>
      <point x="298" y="185" type="curve" smooth="yes"/>
      <point x="254" y="216"/>
      <point x="192" y="252"/>
      <point x="154" y="279" type="curve" smooth="yes"/>
      <point x="128" y="297"/>
      <point x="129" y="318"/>
      <point x="155" y="344" type="curve" smooth="yes"/>
      <point x="191" y="379"/>
      <point x="243" y="423"/>
      <point x="296" y="469" type="curve" smooth="yes"/>
      <point x="330" y="499"/>
      <point x="339" y="535"/>
      <point x="313" y="558" type="curve" smooth="yes"/>
      <point x="286" y="582"/>
      <point x="252" y="571"/>
      <point x="223" y="540" type="curve" smooth="yes"/>
      <point x="172" y="485"/>
      <point x="110" y="415"/>
      <point x="66" y="361" type="curve" smooth="yes"/>
      <point x="33" y="320"/>
      <point x="32" y="270"/>
      <point x="71" y="232" type="curve" smooth="yes"/>
      <point x="112" y="190"/>
      <point x="169" y="139"/>
    </contour>
  </outline>
</glyph>
<glyph name="equal" format="2">
  <advance width="438"/>
  <unicode hex="003D"/>
  <outline>
    <contour>
      <point x="73" y="432" type="curve" smooth="yes"/>
      <point x="31" y="429"/>
      <point x="20" y="408"/>
      <point x="21" y="389" type="curve" smooth="yes"/>
      <point x="21" y="371"/>
      <point x="32" y="352"/>
      <point x="74" y="350" type="curve" smooth="yes"/>
      <point x="157" y="347"/>
      <point x="241" y="345"/>
      <point x="326" y="346" type="curve" smooth="yes"/>
      <point x="376" y="347"/>
      <point x="390" y="370"/>
      <point x="389" y="396" type="curve" smooth="yes"/>
      <point x="388" y="419"/>
      <point x="374" y="445"/>
      <point x="327" y="444" type="curve" smooth="yes"/>
      <point x="242" y="442"/>
      <point x="158" y="438"/>
    </contour>
    <contour>
      <point x="113" y="273" type="curve" smooth="yes"/>
      <point x="63" y="269"/>
      <point x="51" y="239"/>
      <point x="55" y="214" type="curve" smooth="yes"/>
      <point x="58" y="191"/>
      <point x="73" y="172"/>
      <point x="118" y="176" type="curve" smooth="yes"/>
      <point x="200" y="183"/>
      <point x="282" y="192"/>
      <point x="364" y="203" type="curve" smooth="yes"/>
      <point x="409" y="209"/>
      <point x="420" y="233"/>
      <point x="418" y="252" type="curve" smooth="yes"/>
      <point x="416" y="270"/>
      <point x="403" y="287"/>
      <point x="361" y="286" type="curve" smooth="yes"/>
      <point x="278" y="284"/>
      <point x="192" y="279"/>
    </contour>
  </outline>
</glyph>
<glyph name="question" format="2">
  <advance width="470"/>
  <unicode hex="003F"/>
  <outline>
    <contour>
      <point x="270" y="212"/>
      <point x="405" y="342"/>
      <point x="405" y="480" type="curve" smooth="yes"/>
      <point x="405" y="606"/>
      <point x="315" y="663"/>
      <point x="217" y="663" type="curve" smooth="yes"/>
      <point x="115" y="663"/>
      <point x="21" y="605"/>
      <point x="21" y="563" type="curve" smooth="yes"/>
      <point x="21" y="543"/>
      <point x="31" y="535"/>
      <point x="53" y="535" type="curve" smooth="yes"/>
      <point x="83" y="535"/>
      <point x="126" y="588"/>
      <point x="216" y="588" type="curve" smooth="yes"/>
      <point x="275" y="588"/>
      <point x="314" y="561"/>
      <point x="314" y="526" type="curve" smooth="yes"/>
      <point x="314" y="481"/>
      <point x="295" y="455"/>
      <point x="144" y="413" type="curve" smooth="yes"/>
      <point x="72" y="393"/>
      <point x="41" y="364"/>
      <point x="41" y="305" type="curve" smooth="yes"/>
      <point x="41" y="247"/>
      <point x="88" y="212"/>
      <point x="149" y="212" type="curve" smooth="yes"/>
    </contour>
    <contour>
      <point x="164" y="-19" type="curve" smooth="yes"/>
      <point x="223" y="-19"/>
      <point x="256" y="13"/>
      <point x="256" y="68" type="curve" smooth="yes"/>
      <point x="256" y="112"/>
      <point x="223" y="149"/>
      <point x="169" y="149" type="curve" smooth="yes"/>
      <point x="117" y="149"/>
      <point x="79" y="117"/>
      <point x="79" y="63" type="curve" smooth="yes"/>
      <point x="79" y="14"/>
      <point x="116" y="-19"/>
    </contour>
    <contour>
      <point x="150" y="268" type="curve" smooth="yes"/>
      <point x="126" y="268"/>
      <point x="105" y="289"/>
      <point x="105" y="313" type="curve" smooth="yes"/>
      <point x="105" y="337"/>
      <point x="126" y="357"/>
      <point x="150" y="357" type="curve" smooth="yes"/>
      <point x="174" y="357"/>
      <point x="194" y="337"/>
      <point x="194" y="313" type="curve" smooth="yes"/>
      <point x="194" y="289"/>
      <point x="174" y="268"/>
    </contour>
    <contour>
      <point x="254" y="318" type="curve" smooth="yes"/>
      <point x="232" y="318"/>
      <point x="214" y="336"/>
      <point x="214" y="358" type="curve" smooth="yes"/>
      <point x="214" y="380"/>
      <point x="232" y="396"/>
      <point x="254" y="396" type="curve" smooth="yes"/>
      <point x="276" y="396"/>
      <point x="292" y="380"/>
      <point x="292" y="358" type="curve" smooth="yes"/>
      <point x="292" y="336"/>
      <point x="276" y="318"/>
    </contour>
    <contour>
      <point x="76" y="600" type="curve"/>
      <point x="134" y="632" type="line"/>
      <point x="83" y="734"/>
      <point x="64" y="755"/>
      <point x="37" y="742" type="curve" smooth="yes"/>
      <point x="9" y="728"/>
      <point x="18" y="697"/>
    </contour>
    <contour>
      <point x="88" y="580" type="line"/>
      <point x="97" y="565"/>
      <point x="105" y="565"/>
      <point x="126" y="577" type="curve" smooth="yes"/>
      <point x="150" y="591"/>
      <point x="150" y="600"/>
      <point x="143" y="614" type="curve"/>
    </contour>
    <contour>
      <point x="265" y="637" type="line"/>
      <point x="278" y="718"/>
      <point x="275" y="747"/>
      <point x="246" y="751" type="curve" smooth="yes"/>
      <point x="212" y="756"/>
      <point x="207" y="730"/>
      <point x="196" y="642" type="curve"/>
    </contour>
    <contour>
      <point x="361" y="573" type="line"/>
      <point x="456" y="665"/>
      <point x="467" y="687"/>
      <point x="442" y="708" type="curve" smooth="yes"/>
      <point x="420" y="727"/>
      <point x="395" y="711"/>
      <point x="318" y="617" type="curve"/>
    </contour>
    <contour>
      <point x="389" y="502" type="curve"/>
      <point x="387" y="434" type="line"/>
      <point x="479" y="433"/>
      <point x="493" y="444"/>
      <point x="492" y="471" type="curve" smooth="yes"/>
      <point x="491" y="496"/>
      <point x="478" y="505"/>
    </contour>
    <contour>
      <point x="340" y="371" type="curve"/>
      <point x="302" y="323" type="line"/>
      <point x="391" y="240"/>
      <point x="415" y="223"/>
      <point x="436" y="250" type="curve" smooth="yes"/>
      <point x="453" y="272"/>
      <point x="444" y="291"/>
    </contour>
    <contour>
      <point x="107" y="272" type="curve" smooth="yes"/>
      <point x="105" y="278"/>
      <point x="103" y="280"/>
      <point x="100" y="284" type="curve" smooth="yes"/>
      <point x="97" y="288"/>
      <point x="90" y="290"/>
      <point x="80" y="286" type="curve" smooth="yes"/>
      <point x="72" y="282"/>
      <point x="70" y="278"/>
      <point x="73" y="270" type="curve" smooth="yes"/>
      <point x="75" y="268"/>
      <point x="77" y="263"/>
      <point x="79" y="259" type="curve" smooth="yes"/>
      <point x="82" y="254"/>
      <point x="88" y="251"/>
      <point x="98" y="254" type="curve" smooth="yes"/>
      <point x="108" y="259"/>
      <point x="109" y="266"/>
    </contour>
  </outline>
</glyph>
<glyph name="at" format="2">
  <advance width="729"/>
  <unicode hex="0040"/>
  <outline>
    <contour>
      <point x="328" y="-66" type="curve" smooth="yes"/>
      <point x="436" y="-66"/>
      <point x="537" y="-36"/>
      <point x="591" y="6" type="curve" smooth="yes"/>
      <point x="618" y="26"/>
      <point x="617" y="54"/>
      <point x="604" y="71" type="curve" smooth="yes"/>
      <point x="592" y="85"/>
      <point x="564" y="92"/>
      <point x="544" y="76" type="curve" smooth="yes"/>
      <point x="499" y="40"/>
      <point x="442" y="16"/>
      <point x="326" y="16" type="curve" smooth="yes"/>
      <point x="179" y="16"/>
      <point x="114" y="126"/>
      <point x="114" y="342" type="curve" smooth="yes"/>
      <point x="114" y="610"/>
      <point x="230" y="704"/>
      <point x="384" y="704" type="curve" smooth="yes"/>
      <point x="533" y="704"/>
      <point x="614" y="606"/>
      <point x="614" y="443" type="curve" smooth="yes"/>
      <point x="614" y="307"/>
      <point x="597" y="224"/>
      <point x="550" y="224" type="curve" smooth="yes"/>
      <point x="522" y="224"/>
      <point x="504" y="242"/>
      <point x="508" y="290" type="curve" smooth="yes"/>
      <point x="513" y="351"/>
      <point x="518" y="412"/>
      <point x="521" y="473" type="curve" smooth="yes"/>
      <point x="525" y="562"/>
      <point x="493" y="620"/>
      <point x="396" y="620" type="curve" smooth="yes"/>
      <point x="290" y="620"/>
      <point x="209" y="544"/>
      <point x="209" y="348" type="curve" smooth="yes"/>
      <point x="209" y="190"/>
      <point x="275" y="140"/>
      <point x="347" y="140" type="curve" smooth="yes"/>
      <point x="387" y="140"/>
      <point x="423" y="154"/>
      <point x="447" y="190" type="curve" smooth="yes"/>
      <point x="450" y="195"/>
      <point x="455" y="195"/>
      <point x="458" y="190" type="curve" smooth="yes"/>
      <point x="476" y="159"/>
      <point x="510" y="144"/>
      <point x="544" y="144" type="curve" smooth="yes"/>
      <point x="649" y="144"/>
      <point x="706" y="237"/>
      <point x="706" y="441" type="curve" smooth="yes"/>
      <point x="706" y="674"/>
      <point x="584" y="791"/>
      <point x="384" y="791" type="curve" smooth="yes"/>
      <point x="187" y="791"/>
      <point x="25" y="675"/>
      <point x="25" y="341" type="curve" smooth="yes"/>
      <point x="25" y="99"/>
      <point x="112" y="-66"/>
    </contour>
    <contour>
      <point x="312" y="276" type="curve" smooth="yes"/>
      <point x="312" y="369"/>
      <point x="346" y="439"/>
      <point x="395" y="439" type="curve" smooth="yes"/>
      <point x="423" y="439"/>
      <point x="434" y="414"/>
      <point x="432" y="373" type="curve" smooth="yes"/>
      <point x="430" y="339"/>
      <point x="428" y="304"/>
      <point x="426" y="270" type="curve" smooth="yes"/>
      <point x="424" y="233"/>
      <point x="396" y="219"/>
      <point x="361" y="219" type="curve" smooth="yes"/>
      <point x="333" y="219"/>
      <point x="312" y="233"/>
    </contour>
    <contour>
      <point x="479" y="51" type="curve" smooth="yes"/>
      <point x="470" y="97"/>
      <point x="458" y="111"/>
      <point x="432" y="107" type="curve" smooth="yes"/>
      <point x="407" y="103"/>
      <point x="400" y="87"/>
      <point x="406" y="38" type="curve" smooth="yes"/>
      <point x="411" y="-2"/>
      <point x="419" y="-47"/>
      <point x="428" y="-92" type="curve" smooth="yes"/>
      <point x="439" y="-143"/>
      <point x="453" y="-155"/>
      <point x="477" y="-151" type="curve" smooth="yes"/>
      <point x="506" y="-146"/>
      <point x="508" y="-127"/>
      <point x="501" y="-78" type="curve" smooth="yes"/>
      <point x="495" y="-31"/>
      <point x="486" y="14"/>
    </contour>
    <contour>
      <point x="348" y="18" type="curve" smooth="yes"/>
      <point x="354" y="70"/>
      <point x="345" y="86"/>
      <point x="319" y="89" type="curve" smooth="yes"/>
      <point x="297" y="92"/>
      <point x="282" y="85"/>
      <point x="271" y="37" type="curve" smooth="yes"/>
      <point x="264" y="3"/>
      <point x="250" y="-74"/>
      <point x="246" y="-102" type="curve" smooth="yes"/>
      <point x="239" y="-148"/>
      <point x="246" y="-163"/>
      <point x="275" y="-168" type="curve" smooth="yes"/>
      <point x="301" y="-172"/>
      <point x="312" y="-161"/>
      <point x="323" y="-116" type="curve" smooth="yes"/>
      <point x="330" y="-85"/>
      <point x="344" y="-14"/>
    </contour>
    <contour>
      <point x="414" y="496" type="curve" smooth="yes"/>
      <point x="394" y="496"/>
      <point x="379" y="511"/>
      <point x="379" y="531" type="curve" smooth="yes"/>
      <point x="379" y="550"/>
      <point x="394" y="564"/>
      <point x="414" y="564" type="curve" smooth="yes"/>
      <point x="434" y="564"/>
      <point x="448" y="550"/>
      <point x="448" y="531" type="curve" smooth="yes"/>
      <point x="448" y="511"/>
      <point x="434" y="496"/>
    </contour>
    <contour>
      <point x="319" y="458" type="curve" smooth="yes"/>
      <point x="298" y="458"/>
      <point x="283" y="473"/>
      <point x="283" y="494" type="curve" smooth="yes"/>
      <point x="283" y="515"/>
      <point x="298" y="529"/>
      <point x="319" y="529" type="curve" smooth="yes"/>
      <point x="340" y="529"/>
      <point x="354" y="515"/>
      <point x="354" y="494" type="curve" smooth="yes"/>
      <point x="354" y="473"/>
      <point x="340" y="458"/>
    </contour>
    <contour>
      <point x="497" y="12" type="curve" smooth="yes"/>
      <point x="494" y="18"/>
      <point x="486" y="22"/>
      <point x="461" y="13" type="curve" smooth="yes"/>
      <point x="440" y="5"/>
      <point x="438" y="-3"/>
      <point x="440" y="-12" type="curve" smooth="yes"/>
      <point x="441" y="-15"/>
      <point x="444" y="-21"/>
      <point x="445" y="-25" type="curve" smooth="yes"/>
      <point x="451" y="-37"/>
      <point x="461" y="-43"/>
      <point x="485" y="-34" type="curve" smooth="yes"/>
      <point x="508" y="-25"/>
      <point x="509" y="-13"/>
      <point x="505" y="-3" type="curve" smooth="yes"/>
      <point x="502" y="5"/>
      <point x="499" y="9"/>
    </contour>
  </outline>
</glyph>
<glyph name="D" format="2">
  <advance width="620"/>
  <unicode hex="0044"/>
  <unicode hex="0064"/>
  <anchor x="280" y="0" name="bottom"/>
  <anchor x="302" y="681" name="top"/>
  <outline>
    <contour>
      <point x="109" y="79" type="curve" smooth="yes"/>
      <point x="115" y="2"/>
      <point x="150" y="-10"/>
      <point x="242" y="-10" type="curve" smooth="yes"/>
      <point x="455" y="-10"/>
      <point x="574" y="127"/>
      <point x="574" y="336" type="curve" smooth="yes"/>
      <point x="574" y="592"/>
      <point x="449" y="706"/>
      <point x="214" y="706" type="curve" smooth="yes"/>
      <point x="102" y="706"/>
      <point x="72" y="665"/>
      <point x="75" y="603" type="curve" smooth="yes"/>
      <point x="80" y="507"/>
      <point x="86" y="410"/>
      <point x="92" y="314" type="curve" smooth="yes"/>
      <point x="93" y="303"/>
      <point x="93" y="293"/>
      <point x="94" y="282" type="curve" smooth="yes"/>
      <point x="95" y="272"/>
      <point x="96" y="262"/>
      <point x="96" y="252" type="curve" smooth="yes"/>
      <point x="98" y="230"/>
      <point x="99" y="208"/>
      <point x="101" y="186" type="curve" smooth="yes"/>
      <point x="102" y="176"/>
      <point x="103" y="165"/>
      <point x="103" y="154" type="curve" smooth="yes"/>
      <point x="104" y="142"/>
      <point x="105" y="130"/>
      <point x="106" y="118" type="curve" smooth="yes"/>
      <point x="107" y="105"/>
      <point x="108" y="92"/>
    </contour>
    <contour>
      <point x="183" y="200" type="curve" smooth="yes"/>
      <point x="177" y="317"/>
      <point x="173" y="434"/>
      <point x="171" y="551" type="curve" smooth="yes"/>
      <point x="170" y="606"/>
      <point x="187" y="632"/>
      <point x="246" y="632" type="curve" smooth="yes"/>
      <point x="354" y="632"/>
      <point x="434" y="558"/>
      <point x="434" y="440" type="curve" smooth="yes"/>
      <point x="434" y="313"/>
      <point x="349" y="151"/>
      <point x="235" y="151" type="curve" smooth="yes"/>
      <point x="202" y="151"/>
      <point x="185" y="162"/>
    </contour>
    <contour>
      <point x="443" y="132" type="curve" smooth="yes"/>
      <point x="419" y="132"/>
      <point x="399" y="152"/>
      <point x="399" y="176" type="curve" smooth="yes"/>
      <point x="399" y="200"/>
      <point x="419" y="220"/>
      <point x="443" y="220" type="curve" smooth="yes"/>
      <point x="467" y="220"/>
      <point x="487" y="200"/>
      <point x="487" y="176" type="curve" smooth="yes"/>
      <point x="487" y="152"/>
      <point x="467" y="132"/>
    </contour>
    <contour>
      <point x="342" y="55" type="curve" smooth="yes"/>
      <point x="322" y="55"/>
      <point x="306" y="71"/>
      <point x="306" y="91" type="curve" smooth="yes"/>
      <point x="306" y="111"/>
      <point x="322" y="127"/>
      <point x="342" y="127" type="curve" smooth="yes"/>
      <point x="362" y="127"/>
      <point x="378" y="111"/>
      <point x="378" y="91" type="curve" smooth="yes"/>
      <point x="378" y="71"/>
      <point x="362" y="55"/>
    </contour>
    <contour>
      <point x="495" y="258" type="curve" smooth="yes"/>
      <point x="475" y="258"/>
      <point x="459" y="274"/>
      <point x="459" y="294" type="curve" smooth="yes"/>
      <point x="459" y="314"/>
      <point x="475" y="330"/>
      <point x="495" y="330" type="curve" smooth="yes"/>
      <point x="515" y="330"/>
      <point x="531" y="314"/>
      <point x="531" y="294" type="curve" smooth="yes"/>
      <point x="531" y="274"/>
      <point x="515" y="258"/>
    </contour>
    <contour>
      <point x="62" y="565" type="curve" smooth="yes"/>
      <point x="22" y="566"/>
      <point x="-4" y="556"/>
      <point x="-4" y="529" type="curve" smooth="yes"/>
      <point x="-4" y="504"/>
      <point x="17" y="494"/>
      <point x="63" y="492" type="curve" smooth="yes"/>
      <point x="102" y="491"/>
      <point x="169" y="490"/>
      <point x="210" y="491" type="curve" smooth="yes"/>
      <point x="254" y="493"/>
      <point x="272" y="500"/>
      <point x="272" y="523" type="curve" smooth="yes"/>
      <point x="272" y="544"/>
      <point x="258" y="553"/>
      <point x="205" y="557" type="curve" smooth="yes"/>
      <point x="173" y="560"/>
      <point x="110" y="564"/>
    </contour>
    <contour>
      <point x="53" y="422" type="curve" smooth="yes"/>
      <point x="17" y="417"/>
      <point x="1" y="406"/>
      <point x="1" y="386" type="curve" smooth="yes"/>
      <point x="1" y="366"/>
      <point x="17" y="355"/>
      <point x="59" y="357" type="curve" smooth="yes"/>
      <point x="106" y="359"/>
      <point x="172" y="363"/>
      <point x="208" y="367" type="curve" smooth="yes"/>
      <point x="255" y="371"/>
      <point x="274" y="382"/>
      <point x="274" y="407" type="curve" smooth="yes"/>
      <point x="274" y="433"/>
      <point x="253" y="443"/>
      <point x="204" y="439" type="curve" smooth="yes"/>
      <point x="163" y="436"/>
      <point x="98" y="428"/>
    </contour>
    <contour>
      <point x="232" y="65" type="curve" smooth="yes"/>
      <point x="218" y="75"/>
      <point x="207" y="73"/>
      <point x="196" y="62" type="curve" smooth="yes"/>
      <point x="186" y="52"/>
      <point x="184" y="39"/>
      <point x="193" y="26" type="curve" smooth="yes"/>
      <point x="196" y="21"/>
      <point x="200" y="16"/>
      <point x="204" y="13" type="curve" smooth="yes"/>
      <point x="217" y="1"/>
      <point x="229" y="3"/>
      <point x="244" y="15" type="curve" smooth="yes"/>
      <point x="254" y="24"/>
      <point x="258" y="36"/>
      <point x="247" y="50" type="curve" smooth="yes"/>
      <point x="244" y="54"/>
      <point x="238" y="61"/>
    </contour>
  </outline>
</glyph>
<glyph name="H" format="2">
  <advance width="608"/>
  <unicode hex="0048"/>
  <unicode hex="0068"/>
  <anchor x="252" y="-20" name="bottom"/>
  <anchor x="324" y="710" name="top"/>
  <outline>
    <contour>
      <point x="60" y="65" type="curve" smooth="yes"/>
      <point x="59" y="37"/>
      <point x="70" y="12"/>
      <point x="107" y="12" type="curve" smooth="yes"/>
      <point x="144" y="12"/>
      <point x="159" y="38"/>
      <point x="159" y="65" type="curve" smooth="yes"/>
      <point x="159" y="110"/>
      <point x="153" y="154"/>
      <point x="152" y="198" type="curve" smooth="yes"/>
      <point x="152" y="215"/>
      <point x="158" y="223"/>
      <point x="175" y="222" type="curve" smooth="yes"/>
      <point x="185" y="221"/>
      <point x="195" y="221"/>
      <point x="205" y="220" type="curve"/>
      <point x="189" y="297"/>
      <point x="197" y="328"/>
      <point x="227" y="328" type="curve" smooth="yes"/>
      <point x="253" y="328"/>
      <point x="263" y="303"/>
      <point x="269" y="214" type="curve"/>
      <point x="291" y="211"/>
      <point x="313" y="209"/>
      <point x="334" y="206" type="curve"/>
      <point x="342" y="308"/>
      <point x="358" y="324"/>
      <point x="383" y="323" type="curve" smooth="yes"/>
      <point x="419" y="322"/>
      <point x="412" y="262"/>
      <point x="402" y="197" type="curve"/>
      <point x="412" y="196"/>
      <point x="422" y="195"/>
      <point x="432" y="193" type="curve" smooth="yes"/>
      <point x="449" y="190"/>
      <point x="454" y="182"/>
      <point x="450" y="161" type="curve" smooth="yes"/>
      <point x="442" y="114"/>
      <point x="427" y="68"/>
      <point x="418" y="21" type="curve" smooth="yes"/>
      <point x="410" y="-22"/>
      <point x="424" y="-53"/>
      <point x="466" y="-53" type="curve" smooth="yes"/>
      <point x="505" y="-53"/>
      <point x="519" y="-28"/>
      <point x="521" y="10" type="curve" smooth="yes"/>
      <point x="532" y="186"/>
      <point x="541" y="389"/>
      <point x="547" y="580" type="curve" smooth="yes"/>
      <point x="549" y="626"/>
      <point x="531" y="655"/>
      <point x="494" y="655" type="curve" smooth="yes"/>
      <point x="458" y="655"/>
      <point x="441" y="628"/>
      <point x="438" y="590" type="curve" smooth="yes"/>
      <point x="435" y="539"/>
      <point x="435" y="492"/>
      <point x="431" y="446" type="curve" smooth="yes"/>
      <point x="430" y="430"/>
      <point x="423" y="422"/>
      <point x="400" y="417" type="curve" smooth="yes"/>
      <point x="334" y="404"/>
      <point x="258" y="393"/>
      <point x="191" y="387" type="curve" smooth="yes"/>
      <point x="170" y="385"/>
      <point x="162" y="398"/>
      <point x="163" y="414" type="curve" smooth="yes"/>
      <point x="167" y="497"/>
      <point x="177" y="575"/>
      <point x="182" y="662" type="curve" smooth="yes"/>
      <point x="184" y="697"/>
      <point x="171" y="724"/>
      <point x="138" y="724" type="curve" smooth="yes"/>
      <point x="108" y="724"/>
      <point x="94" y="699"/>
      <point x="92" y="672" type="curve" smooth="yes"/>
      <point x="92" y="665"/>
      <point x="91" y="659"/>
      <point x="91" y="652" type="curve" smooth="yes"/>
      <point x="90" y="642"/>
      <point x="89" y="632"/>
      <point x="89" y="622" type="curve" smooth="yes"/>
      <point x="88" y="610"/>
      <point x="87" y="599"/>
      <point x="86" y="587" type="curve" smooth="yes"/>
      <point x="85" y="574"/>
      <point x="84" y="560"/>
      <point x="84" y="547" type="curve" smooth="yes"/>
      <point x="84" y="537"/>
      <point x="83" y="527"/>
      <point x="82" y="518" type="curve" smooth="yes"/>
      <point x="81" y="508"/>
      <point x="81" y="498"/>
      <point x="80" y="488" type="curve" smooth="yes"/>
      <point x="72" y="351"/>
      <point x="65" y="208"/>
    </contour>
    <contour>
      <point x="296" y="476" type="curve" smooth="yes"/>
      <point x="327" y="476"/>
      <point x="352" y="501"/>
      <point x="352" y="532" type="curve" smooth="yes"/>
      <point x="352" y="563"/>
      <point x="327" y="588"/>
      <point x="296" y="588" type="curve" smooth="yes"/>
      <point x="265" y="588"/>
      <point x="240" y="563"/>
      <point x="240" y="532" type="curve" smooth="yes"/>
      <point x="240" y="501"/>
      <point x="265" y="476"/>
    </contour>
    <contour>
      <point x="492" y="551" type="curve" smooth="yes"/>
      <point x="486" y="551"/>
      <point x="481" y="551"/>
      <point x="475" y="551" type="curve" smooth="yes"/>
      <point x="455" y="551"/>
      <point x="446" y="538"/>
      <point x="446" y="511" type="curve" smooth="yes"/>
      <point x="446" y="490"/>
      <point x="452" y="474"/>
      <point x="468" y="474" type="curve" smooth="yes"/>
      <point x="476" y="474"/>
      <point x="482" y="474"/>
      <point x="489" y="474" type="curve" smooth="yes"/>
      <point x="507" y="474"/>
      <point x="516" y="488"/>
      <point x="516" y="512" type="curve" smooth="yes"/>
      <point x="516" y="538"/>
      <point x="508" y="551"/>
    </contour>
    <contour>
      <point x="115" y="22" type="curve" smooth="yes"/>
      <point x="138" y="22"/>
      <point x="157" y="41"/>
      <point x="157" y="64" type="curve" smooth="yes"/>
      <point x="157" y="88"/>
      <point x="138" y="107"/>
      <point x="115" y="107" type="curve" smooth="yes"/>
      <point x="91" y="107"/>
      <point x="72" y="88"/>
      <point x="72" y="64" type="curve" smooth="yes"/>
      <point x="72" y="41"/>
      <point x="91" y="22"/>
    </contour>
    <contour>
      <point x="135" y="656" type="curve" smooth="yes"/>
      <point x="131" y="656"/>
      <point x="126" y="656"/>
      <point x="122" y="656" type="curve" smooth="yes"/>
      <point x="107" y="656"/>
      <point x="100" y="639"/>
      <point x="100" y="624" type="curve" smooth="yes"/>
      <point x="100" y="609"/>
      <point x="106" y="595"/>
      <point x="119" y="596" type="curve" smooth="yes"/>
      <point x="124" y="596"/>
      <point x="129" y="597"/>
      <point x="134" y="597" type="curve" smooth="yes"/>
      <point x="148" y="598"/>
      <point x="154" y="613"/>
      <point x="154" y="628" type="curve" smooth="yes"/>
      <point x="154" y="642"/>
      <point x="148" y="656"/>
    </contour>
  </outline>
</glyph>
<glyph name="K" format="2">
  <advance width="609"/>
  <unicode hex="004B"/>
  <unicode hex="006B"/>
  <anchor x="303" y="23" name="bottom"/>
  <anchor x="304" y="670" name="top"/>
  <outline>
    <contour>
      <point x="98" y="1" type="curve" smooth="yes"/>
      <point x="100" y="-33"/>
      <point x="113" y="-54"/>
      <point x="139" y="-54" type="curve" smooth="yes"/>
      <point x="168" y="-54"/>
      <point x="176" y="-30"/>
      <point x="176" y="2" type="curve" smooth="yes"/>
      <point x="176" y="69"/>
      <point x="170" y="147"/>
      <point x="170" y="204" type="curve" smooth="yes"/>
      <point x="170" y="249"/>
      <point x="189" y="270"/>
      <point x="223" y="270" type="curve" smooth="yes"/>
      <point x="254" y="270"/>
      <point x="272" y="257"/>
      <point x="296" y="216" type="curve" smooth="yes"/>
      <point x="426" y="-2"/>
      <point x="450" y="-28"/>
      <point x="489" y="-28" type="curve" smooth="yes"/>
      <point x="517" y="-28"/>
      <point x="536" y="-9"/>
      <point x="536" y="19" type="curve" smooth="yes"/>
      <point x="536" y="46"/>
      <point x="528" y="65"/>
      <point x="352" y="277" type="curve" smooth="yes"/>
      <point x="328" y="306"/>
      <point x="332" y="335"/>
      <point x="360" y="359" type="curve" smooth="yes"/>
      <point x="422" y="413"/>
      <point x="478" y="451"/>
      <point x="547" y="510" type="curve" smooth="yes"/>
      <point x="605" y="559"/>
      <point x="623" y="624"/>
      <point x="571" y="675" type="curve" smooth="yes"/>
      <point x="529" y="717"/>
      <point x="467" y="715"/>
      <point x="412" y="654" type="curve" smooth="yes"/>
      <point x="343" y="576"/>
      <point x="272" y="487"/>
      <point x="199" y="406" type="curve" smooth="yes"/>
      <point x="181" y="386"/>
      <point x="162" y="394"/>
      <point x="162" y="417" type="curve" smooth="yes"/>
      <point x="162" y="445"/>
      <point x="164" y="469"/>
      <point x="163" y="491" type="curve" smooth="yes"/>
      <point x="162" y="528"/>
      <point x="152" y="547"/>
      <point x="119" y="547" type="curve" smooth="yes"/>
      <point x="86" y="547"/>
      <point x="73" y="525"/>
      <point x="74" y="490" type="curve" smooth="yes"/>
      <point x="78" y="328"/>
      <point x="86" y="165"/>
    </contour>
    <contour>
      <point x="496" y="234" type="curve" smooth="yes"/>
      <point x="525" y="234"/>
      <point x="549" y="258"/>
      <point x="549" y="289" type="curve" smooth="yes"/>
      <point x="549" y="318"/>
      <point x="525" y="342"/>
      <point x="496" y="342" type="curve" smooth="yes"/>
      <point x="465" y="342"/>
      <point x="441" y="318"/>
      <point x="441" y="289" type="curve" smooth="yes"/>
      <point x="441" y="258"/>
      <point x="465" y="234"/>
    </contour>
    <contour>
      <point x="490" y="694" type="curve" smooth="yes"/>
      <point x="486" y="698"/>
      <point x="476" y="695"/>
      <point x="470" y="689" type="curve" smooth="yes"/>
      <point x="464" y="682"/>
      <point x="461" y="673"/>
      <point x="467" y="667" type="curve" smooth="yes"/>
      <point x="469" y="665"/>
      <point x="470" y="664"/>
      <point x="472" y="662" type="curve" smooth="yes"/>
      <point x="476" y="658"/>
      <point x="484" y="662"/>
      <point x="491" y="669" type="curve" smooth="yes"/>
      <point x="497" y="676"/>
      <point x="501" y="683"/>
      <point x="496" y="688" type="curve" smooth="yes"/>
      <point x="494" y="690"/>
      <point x="492" y="692"/>
    </contour>
    <contour>
      <point x="433" y="647" type="line"/>
      <point x="429" y="649"/>
      <point x="426" y="649"/>
      <point x="419" y="641" type="curve" smooth="yes"/>
      <point x="413" y="632"/>
      <point x="412" y="628"/>
      <point x="416" y="624" type="curve"/>
    </contour>
    <contour>
      <point x="55" y="191" type="curve" smooth="yes"/>
      <point x="25" y="187"/>
      <point x="8" y="178"/>
      <point x="8" y="156" type="curve" smooth="yes"/>
      <point x="8" y="129"/>
      <point x="30" y="121"/>
      <point x="60" y="122" type="curve" smooth="yes"/>
      <point x="111" y="124"/>
      <point x="163" y="127"/>
      <point x="214" y="134" type="curve" smooth="yes"/>
      <point x="241" y="138"/>
      <point x="259" y="145"/>
      <point x="259" y="171" type="curve" smooth="yes"/>
      <point x="259" y="199"/>
      <point x="239" y="206"/>
      <point x="206" y="204" type="curve" smooth="yes"/>
      <point x="154" y="201"/>
      <point x="103" y="197"/>
    </contour>
    <contour>
      <point x="119" y="404" type="curve" smooth="yes"/>
      <point x="131" y="404"/>
      <point x="142" y="415"/>
      <point x="142" y="428" type="curve" smooth="yes"/>
      <point x="142" y="440"/>
      <point x="131" y="451"/>
      <point x="119" y="451" type="curve" smooth="yes"/>
      <point x="106" y="451"/>
      <point x="95" y="440"/>
      <point x="95" y="428" type="curve" smooth="yes"/>
      <point x="95" y="415"/>
      <point x="106" y="404"/>
    </contour>
    <contour>
      <point x="112" y="580" type="curve" smooth="yes"/>
      <point x="147" y="580"/>
      <point x="175" y="608"/>
      <point x="175" y="643" type="curve" smooth="yes"/>
      <point x="175" y="678"/>
      <point x="147" y="706"/>
      <point x="112" y="706" type="curve" smooth="yes"/>
      <point x="77" y="706"/>
      <point x="49" y="678"/>
      <point x="49" y="643" type="curve" smooth="yes"/>
      <point x="49" y="608"/>
      <point x="77" y="580"/>
    </contour>
    <contour>
      <point x="119" y="465" type="curve" smooth="yes"/>
      <point x="134" y="465"/>
      <point x="147" y="478"/>
      <point x="147" y="493" type="curve" smooth="yes"/>
      <point x="147" y="508"/>
      <point x="134" y="521"/>
      <point x="119" y="521" type="curve" smooth="yes"/>
      <point x="104" y="521"/>
      <point x="91" y="508"/>
      <point x="91" y="493" type="curve" smooth="yes"/>
      <point x="91" y="478"/>
      <point x="104" y="465"/>
    </contour>
    <contour>
      <point x="386" y="453" type="curve" smooth="yes"/>
      <point x="364" y="453"/>
      <point x="347" y="470"/>
      <point x="347" y="492" type="curve" smooth="yes"/>
      <point x="347" y="513"/>
      <point x="364" y="530"/>
      <point x="386" y="530" type="curve" smooth="yes"/>
      <point x="407" y="530"/>
      <point x="424" y="513"/>
      <point x="424" y="492" type="curve" smooth="yes"/>
      <point x="424" y="470"/>
      <point x="407" y="453"/>
    </contour>
    <contour>
      <point x="487" y="538" type="curve" smooth="yes"/>
      <point x="459" y="538"/>
      <point x="436" y="561"/>
      <point x="436" y="589" type="curve" smooth="yes"/>
      <point x="436" y="615"/>
      <point x="459" y="638"/>
      <point x="487" y="638" type="curve" smooth="yes"/>
      <point x="513" y="638"/>
      <point x="536" y="615"/>
      <point x="536" y="589" type="curve" smooth="yes"/>
      <point x="536" y="561"/>
      <point x="513" y="538"/>
    </contour>
  </outline>
</glyph>
<glyph name="P" format="2">
  <advance width="555"/>
  <unicode hex="0050"/>
  <unicode hex="0070"/>
  <anchor x="128" y="0" name="bottom"/>
  <anchor x="262" y="701" name="top"/>
  <outline>
    <contour>
      <point x="159" y="452" type="curve" smooth="yes"/>
      <point x="172" y="539"/>
      <point x="181" y="566"/>
      <point x="201" y="586" type="curve" smooth="yes"/>
      <point x="223" y="608"/>
      <point x="256" y="615"/>
      <point x="306" y="615" type="curve" smooth="yes"/>
      <point x="388" y="615"/>
      <point x="425" y="573"/>
      <point x="425" y="482" type="curve" smooth="yes"/>
      <point x="425" y="386"/>
      <point x="388" y="327"/>
      <point x="277" y="327" type="curve" smooth="yes"/>
      <point x="205" y="327"/>
      <point x="170" y="326"/>
      <point x="158" y="338" type="curve" smooth="yes"/>
      <point x="148" y="348"/>
      <point x="146" y="362"/>
    </contour>
    <contour>
      <point x="59" y="66" type="curve" smooth="yes"/>
      <point x="58" y="-6"/>
      <point x="84" y="-43"/>
      <point x="150" y="-44" type="curve" smooth="yes"/>
      <point x="210" y="-44"/>
      <point x="230" y="-1"/>
      <point x="242" y="45" type="curve" smooth="yes"/>
      <point x="254" y="90"/>
      <point x="260" y="157"/>
      <point x="274" y="212" type="curve" smooth="yes"/>
      <point x="284" y="254"/>
      <point x="298" y="263"/>
      <point x="328" y="264" type="curve" smooth="yes"/>
      <point x="363" y="266"/>
      <point x="406" y="277"/>
      <point x="451" y="322" type="curve" smooth="yes"/>
      <point x="482" y="353"/>
      <point x="505" y="408"/>
      <point x="505" y="478" type="curve" smooth="yes"/>
      <point x="505" y="558"/>
      <point x="491" y="605"/>
      <point x="457" y="639" type="curve" smooth="yes"/>
      <point x="422" y="674"/>
      <point x="387" y="688"/>
      <point x="189" y="708" type="curve" smooth="yes"/>
      <point x="150" y="712"/>
      <point x="121" y="702"/>
      <point x="103" y="684" type="curve" smooth="yes"/>
      <point x="88" y="669"/>
      <point x="82" y="643"/>
      <point x="79" y="599" type="curve" smooth="yes"/>
      <point x="67" y="443"/>
      <point x="61" y="249"/>
    </contour>
    <contour>
      <point x="455" y="272" type="curve" smooth="yes"/>
      <point x="414" y="321"/>
      <point x="372" y="367"/>
      <point x="331" y="410" type="curve" smooth="yes"/>
      <point x="298" y="445"/>
      <point x="279" y="450"/>
      <point x="263" y="437" type="curve" smooth="yes"/>
      <point x="246" y="422"/>
      <point x="252" y="401"/>
      <point x="278" y="368" type="curve" smooth="yes"/>
      <point x="317" y="318"/>
      <point x="359" y="267"/>
      <point x="402" y="217" type="curve" smooth="yes"/>
      <point x="430" y="185"/>
      <point x="459" y="165"/>
      <point x="481" y="187" type="curve" smooth="yes"/>
      <point x="502" y="208"/>
      <point x="489" y="231"/>
    </contour>
    <contour>
      <point x="495" y="505" type="curve" smooth="yes"/>
      <point x="469" y="509"/>
      <point x="442" y="512"/>
      <point x="416" y="514" type="curve" smooth="yes"/>
      <point x="370" y="518"/>
      <point x="337" y="514"/>
      <point x="337" y="482" type="curve" smooth="yes"/>
      <point x="337" y="457"/>
      <point x="361" y="447"/>
      <point x="403" y="443" type="curve" smooth="yes"/>
      <point x="435" y="440"/>
      <point x="466" y="439"/>
      <point x="498" y="438" type="curve" smooth="yes"/>
      <point x="550" y="436"/>
      <point x="561" y="449"/>
      <point x="561" y="468" type="curve" smooth="yes"/>
      <point x="561" y="485"/>
      <point x="553" y="496"/>
    </contour>
    <contour>
      <point x="89" y="74" type="curve" smooth="yes"/>
      <point x="87" y="74"/>
      <point x="84" y="74"/>
      <point x="82" y="74" type="curve" smooth="yes"/>
      <point x="72" y="74"/>
      <point x="65" y="66"/>
      <point x="65" y="43" type="curve" smooth="yes"/>
      <point x="65" y="20"/>
      <point x="72" y="9"/>
      <point x="83" y="9" type="curve" smooth="yes"/>
      <point x="86" y="9"/>
      <point x="89" y="9"/>
      <point x="92" y="9" type="curve" smooth="yes"/>
      <point x="101" y="9"/>
      <point x="109" y="14"/>
      <point x="109" y="42" type="curve" smooth="yes"/>
      <point x="109" y="64"/>
      <point x="102" y="74"/>
    </contour>
    <contour>
      <point x="172" y="168" type="curve" smooth="yes"/>
      <point x="147" y="168"/>
      <point x="127" y="188"/>
      <point x="127" y="213" type="curve" smooth="yes"/>
      <point x="127" y="238"/>
      <point x="147" y="258"/>
      <point x="172" y="258" type="curve" smooth="yes"/>
      <point x="197" y="258"/>
      <point x="217" y="238"/>
      <point x="217" y="213" type="curve" smooth="yes"/>
      <point x="217" y="188"/>
      <point x="197" y="168"/>
    </contour>
    <contour>
      <point x="155" y="48" type="curve" smooth="yes"/>
      <point x="135" y="48"/>
      <point x="118" y="65"/>
      <point x="118" y="85" type="curve" smooth="yes"/>
      <point x="118" y="105"/>
      <point x="135" y="122"/>
      <point x="155" y="122" type="curve" smooth="yes"/>
      <point x="175" y="122"/>
      <point x="192" y="105"/>
      <point x="192" y="85" type="curve" smooth="yes"/>
      <point x="192" y="65"/>
      <point x="175" y="48"/>
    </contour>
  </outline>
</glyph>
<glyph name="U" format="2">
  <advance width="645"/>
  <unicode hex="0055"/>
  <unicode hex="0075"/>
  <anchor x="347" y="0" name="ogonek"/>
  <anchor x="299" y="727" name="top"/>
  <outline>
    <contour>
      <point x="309" y="16" type="curve" smooth="yes"/>
      <point x="486" y="16"/>
      <point x="555" y="135"/>
      <point x="571" y="291" type="curve" smooth="yes"/>
      <point x="581" y="389"/>
      <point x="588" y="479"/>
      <point x="588" y="572" type="curve" smooth="yes"/>
      <point x="588" y="668"/>
      <point x="560" y="725"/>
      <point x="465" y="725" type="curve" smooth="yes"/>
      <point x="360" y="725"/>
      <point x="315" y="650"/>
      <point x="338" y="556" type="curve" smooth="yes"/>
      <point x="360" y="468"/>
      <point x="389" y="389"/>
      <point x="410" y="306" type="curve" smooth="yes"/>
      <point x="438" y="197"/>
      <point x="408" y="99"/>
      <point x="305" y="99" type="curve" smooth="yes"/>
      <point x="211" y="99"/>
      <point x="160" y="161"/>
      <point x="163" y="292" type="curve" smooth="yes"/>
      <point x="166" y="419"/>
      <point x="176" y="541"/>
      <point x="181" y="696" type="curve" smooth="yes"/>
      <point x="183" y="742"/>
      <point x="173" y="763"/>
      <point x="149" y="763" type="curve" smooth="yes"/>
      <point x="126" y="763"/>
      <point x="117" y="745"/>
      <point x="111" y="707" type="curve" smooth="yes"/>
      <point x="92" y="584"/>
      <point x="73" y="445"/>
      <point x="62" y="314" type="curve" smooth="yes"/>
      <point x="44" y="114"/>
      <point x="131" y="16"/>
    </contour>
    <contour>
      <point x="302" y="183" type="curve" smooth="yes"/>
      <point x="332" y="183"/>
      <point x="356" y="207"/>
      <point x="356" y="237" type="curve" smooth="yes"/>
      <point x="356" y="267"/>
      <point x="332" y="291"/>
      <point x="302" y="291" type="curve" smooth="yes"/>
      <point x="272" y="291"/>
      <point x="248" y="267"/>
      <point x="248" y="237" type="curve" smooth="yes"/>
      <point x="248" y="207"/>
      <point x="272" y="183"/>
    </contour>
    <contour>
      <point x="210" y="691" type="curve" smooth="yes"/>
      <point x="175" y="690"/>
      <point x="120" y="688"/>
      <point x="85" y="685" type="curve" smooth="yes"/>
      <point x="32" y="680"/>
      <point x="10" y="673"/>
      <point x="10" y="647" type="curve" smooth="yes"/>
      <point x="10" y="619"/>
      <point x="32" y="611"/>
      <point x="88" y="612" type="curve" smooth="yes"/>
      <point x="122" y="613"/>
      <point x="176" y="616"/>
      <point x="210" y="619" type="curve" smooth="yes"/>
      <point x="270" y="625"/>
      <point x="282" y="632"/>
      <point x="282" y="658" type="curve" smooth="yes"/>
      <point x="282" y="686"/>
      <point x="264" y="692"/>
    </contour>
    <contour>
      <point x="170" y="505" type="curve" smooth="yes"/>
      <point x="156" y="505"/>
      <point x="138" y="505"/>
      <point x="122" y="505" type="curve" smooth="yes"/>
      <point x="95" y="505"/>
      <point x="83" y="494"/>
      <point x="83" y="466" type="curve" smooth="yes"/>
      <point x="83" y="443"/>
      <point x="93" y="435"/>
      <point x="120" y="431" type="curve" smooth="yes"/>
      <point x="132" y="429"/>
      <point x="150" y="428"/>
      <point x="165" y="428" type="curve" smooth="yes"/>
      <point x="278" y="427"/>
      <point x="299" y="432"/>
      <point x="299" y="466" type="curve" smooth="yes"/>
      <point x="299" y="494"/>
      <point x="275" y="502"/>
    </contour>
    <contour>
      <point x="477" y="705" type="curve" smooth="yes"/>
      <point x="473" y="705"/>
      <point x="468" y="705"/>
      <point x="464" y="705" type="curve" smooth="yes"/>
      <point x="446" y="704"/>
      <point x="438" y="691"/>
      <point x="438" y="678" type="curve" smooth="yes"/>
      <point x="438" y="662"/>
      <point x="449" y="645"/>
      <point x="469" y="645" type="curve" smooth="yes"/>
      <point x="471" y="645"/>
      <point x="474" y="645"/>
      <point x="476" y="645" type="curve" smooth="yes"/>
      <point x="493" y="645"/>
      <point x="501" y="660"/>
      <point x="501" y="675" type="curve" smooth="yes"/>
      <point x="501" y="691"/>
      <point x="492" y="706"/>
    </contour>
    <contour>
      <point x="481" y="416" type="curve" smooth="yes"/>
      <point x="457" y="416"/>
      <point x="438" y="435"/>
      <point x="438" y="459" type="curve" smooth="yes"/>
      <point x="438" y="483"/>
      <point x="457" y="502"/>
      <point x="481" y="502" type="curve" smooth="yes"/>
      <point x="505" y="502"/>
      <point x="524" y="483"/>
      <point x="524" y="459" type="curve" smooth="yes"/>
      <point x="524" y="435"/>
      <point x="505" y="416"/>
    </contour>
    <contour>
      <point x="464" y="541" type="curve" smooth="yes"/>
      <point x="436" y="541"/>
      <point x="414" y="563"/>
      <point x="414" y="591" type="curve" smooth="yes"/>
      <point x="414" y="618"/>
      <point x="436" y="639"/>
      <point x="464" y="639" type="curve" smooth="yes"/>
      <point x="491" y="639"/>
      <point x="512" y="618"/>
      <point x="512" y="591" type="curve" smooth="yes"/>
      <point x="512" y="563"/>
      <point x="491" y="541"/>
    </contour>
    <contour>
      <point x="497" y="295" type="curve" smooth="yes"/>
      <point x="477" y="295"/>
      <point x="461" y="311"/>
      <point x="461" y="331" type="curve" smooth="yes"/>
      <point x="461" y="351"/>
      <point x="477" y="366"/>
      <point x="497" y="366" type="curve" smooth="yes"/>
      <point x="517" y="366"/>
      <point x="532" y="351"/>
      <point x="532" y="331" type="curve" smooth="yes"/>
      <point x="532" y="311"/>
      <point x="517" y="295"/>
    </contour>
  </outline>
</glyph>
<glyph name="V" format="2">
  <advance width="616"/>
  <unicode hex="0056"/>
  <unicode hex="0076"/>
  <anchor x="322" y="0" name="bottom"/>
  <anchor x="364" y="700" name="top"/>
  <outline>
    <contour>
      <point x="22" y="557" type="curve" smooth="yes"/>
      <point x="23" y="555"/>
      <point x="24" y="553"/>
      <point x="25" y="551" type="curve"/>
      <point x="111" y="586"/>
      <point x="157" y="583"/>
      <point x="157" y="547" type="curve" smooth="yes"/>
      <point x="157" y="522"/>
      <point x="135" y="508"/>
      <point x="46" y="492" type="curve"/>
      <point x="52" y="469"/>
      <point x="60" y="448"/>
      <point x="68" y="427" type="curve"/>
      <point x="153" y="462"/>
      <point x="194" y="452"/>
      <point x="194" y="420" type="curve" smooth="yes"/>
      <point x="194" y="397"/>
      <point x="170" y="381"/>
      <point x="89" y="367" type="curve"/>
      <point x="121" y="278"/>
      <point x="153" y="189"/>
      <point x="186" y="105" type="curve" smooth="yes"/>
      <point x="224" y="5"/>
      <point x="267" y="-22"/>
      <point x="335" y="-22" type="curve" smooth="yes"/>
      <point x="407" y="-22"/>
      <point x="440" y="19"/>
      <point x="457" y="88" type="curve" smooth="yes"/>
      <point x="459" y="96"/>
      <point x="461" y="104"/>
      <point x="463" y="112" type="curve" smooth="yes"/>
      <point x="465" y="122"/>
      <point x="468" y="132"/>
      <point x="470" y="142" type="curve" smooth="yes"/>
      <point x="472" y="150"/>
      <point x="474" y="157"/>
      <point x="476" y="165" type="curve" smooth="yes"/>
      <point x="479" y="178"/>
      <point x="482" y="191"/>
      <point x="485" y="204" type="curve" smooth="yes"/>
      <point x="488" y="217"/>
      <point x="491" y="229"/>
      <point x="494" y="241" type="curve" smooth="yes"/>
      <point x="496" y="249"/>
      <point x="498" y="258"/>
      <point x="500" y="266" type="curve" smooth="yes"/>
      <point x="526" y="384"/>
      <point x="550" y="502"/>
      <point x="573" y="617" type="curve" smooth="yes"/>
      <point x="582" y="662"/>
      <point x="574" y="696"/>
      <point x="532" y="696" type="curve" smooth="yes"/>
      <point x="503" y="696"/>
      <point x="487" y="674"/>
      <point x="480" y="636" type="curve" smooth="yes"/>
      <point x="449" y="469"/>
      <point x="423" y="297"/>
      <point x="391" y="130" type="curve" smooth="yes"/>
      <point x="383" y="86"/>
      <point x="370" y="58"/>
      <point x="340" y="58" type="curve" smooth="yes"/>
      <point x="314" y="58"/>
      <point x="298" y="72"/>
      <point x="292" y="114" type="curve" smooth="yes"/>
      <point x="269" y="271"/>
      <point x="255" y="427"/>
      <point x="226" y="625" type="curve" smooth="yes"/>
      <point x="216" y="689"/>
      <point x="181" y="719"/>
      <point x="129" y="719" type="curve" smooth="yes"/>
      <point x="33" y="719"/>
      <point x="-12" y="658"/>
    </contour>
    <contour>
      <point x="357" y="502" type="curve" smooth="yes"/>
      <point x="393" y="502"/>
      <point x="422" y="531"/>
      <point x="422" y="567" type="curve" smooth="yes"/>
      <point x="422" y="603"/>
      <point x="393" y="632"/>
      <point x="357" y="632" type="curve" smooth="yes"/>
      <point x="321" y="632"/>
      <point x="292" y="603"/>
      <point x="292" y="567" type="curve" smooth="yes"/>
      <point x="292" y="531"/>
      <point x="321" y="502"/>
    </contour>
    <contour>
      <point x="539" y="380" type="curve" smooth="yes"/>
      <point x="495" y="378"/>
      <point x="450" y="376"/>
      <point x="406" y="372" type="curve" smooth="yes"/>
      <point x="351" y="367"/>
      <point x="327" y="360"/>
      <point x="327" y="333" type="curve" smooth="yes"/>
      <point x="327" y="304"/>
      <point x="352" y="297"/>
      <point x="410" y="300" type="curve" smooth="yes"/>
      <point x="451" y="302"/>
      <point x="492" y="305"/>
      <point x="533" y="310" type="curve" smooth="yes"/>
      <point x="587" y="317"/>
      <point x="609" y="323"/>
      <point x="606" y="350" type="curve" smooth="yes"/>
      <point x="604" y="377"/>
      <point x="585" y="382"/>
    </contour>
    <contour>
      <point x="150" y="681" type="curve" smooth="yes"/>
      <point x="134" y="678"/>
      <point x="118" y="674"/>
      <point x="102" y="669" type="curve" smooth="yes"/>
      <point x="81" y="663"/>
      <point x="74" y="652"/>
      <point x="79" y="634" type="curve" smooth="yes"/>
      <point x="85" y="613"/>
      <point x="95" y="608"/>
      <point x="112" y="611" type="curve" smooth="yes"/>
      <point x="129" y="614"/>
      <point x="147" y="617"/>
      <point x="167" y="623" type="curve" smooth="yes"/>
      <point x="187" y="629"/>
      <point x="197" y="638"/>
      <point x="191" y="659" type="curve" smooth="yes"/>
      <point x="185" y="682"/>
      <point x="173" y="685"/>
    </contour>
    <contour>
      <point x="122" y="707" type="curve" smooth="yes"/>
      <point x="118" y="707"/>
      <point x="113" y="707"/>
      <point x="109" y="707" type="curve" smooth="yes"/>
      <point x="95" y="706"/>
      <point x="91" y="699"/>
      <point x="91" y="683" type="curve" smooth="yes"/>
      <point x="91" y="662"/>
      <point x="95" y="657"/>
      <point x="109" y="657" type="curve" smooth="yes"/>
      <point x="113" y="657"/>
      <point x="118" y="657"/>
      <point x="122" y="657" type="curve" smooth="yes"/>
      <point x="136" y="658"/>
      <point x="140" y="669"/>
      <point x="140" y="683" type="curve" smooth="yes"/>
      <point x="140" y="695"/>
      <point x="134" y="707"/>
    </contour>
  </outline>
</glyph>
<glyph name="X" format="2">
  <advance width="576"/>
  <unicode hex="0058"/>
  <unicode hex="0078"/>
  <anchor x="289" y="-8" name="bottom"/>
  <anchor x="349" y="707" name="top"/>
  <outline>
    <contour>
      <point x="63" y="-34" type="curve" smooth="yes"/>
      <point x="90" y="-44"/>
      <point x="117" y="-30"/>
      <point x="133" y="6" type="curve" smooth="yes"/>
      <point x="163" y="73"/>
      <point x="185" y="145"/>
      <point x="215" y="214" type="curve" smooth="yes"/>
      <point x="237" y="264"/>
      <point x="262" y="280"/>
      <point x="294" y="280" type="curve" smooth="yes"/>
      <point x="327" y="280"/>
      <point x="343" y="262"/>
      <point x="366" y="211" type="curve" smooth="yes"/>
      <point x="388" y="163"/>
      <point x="403" y="110"/>
      <point x="426" y="62" type="curve" smooth="yes"/>
      <point x="452" y="7"/>
      <point x="484" y="-10"/>
      <point x="516" y="6" type="curve" smooth="yes"/>
      <point x="549" y="22"/>
      <point x="550" y="56"/>
      <point x="526" y="106" type="curve" smooth="yes"/>
      <point x="501" y="158"/>
      <point x="469" y="206"/>
      <point x="441" y="258" type="curve" smooth="yes"/>
      <point x="416" y="304"/>
      <point x="410" y="325"/>
      <point x="410" y="342" type="curve" smooth="yes"/>
      <point x="410" y="360"/>
      <point x="414" y="387"/>
      <point x="432" y="433" type="curve" smooth="yes"/>
      <point x="456" y="493"/>
      <point x="489" y="553"/>
      <point x="510" y="614" type="curve" smooth="yes"/>
      <point x="524" y="654"/>
      <point x="522" y="683"/>
      <point x="495" y="692" type="curve" smooth="yes"/>
      <point x="469" y="701"/>
      <point x="452" y="691"/>
      <point x="434" y="649" type="curve" smooth="yes"/>
      <point x="403" y="577"/>
      <point x="381" y="502"/>
      <point x="353" y="435" type="curve" smooth="yes"/>
      <point x="337" y="398"/>
      <point x="320" y="386"/>
      <point x="296" y="386" type="curve" smooth="yes"/>
      <point x="265" y="386"/>
      <point x="247" y="408"/>
      <point x="244" y="447" type="curve" smooth="yes"/>
      <point x="243" y="462"/>
      <point x="243" y="476"/>
      <point x="244" y="491" type="curve"/>
      <point x="168" y="483"/>
      <point x="145" y="492"/>
      <point x="146" y="521" type="curve" smooth="yes"/>
      <point x="147" y="545"/>
      <point x="167" y="555"/>
      <point x="246" y="551" type="curve"/>
      <point x="248" y="570"/>
      <point x="249" y="585"/>
      <point x="249" y="606" type="curve"/>
      <point x="162" y="595"/>
      <point x="113" y="596"/>
      <point x="112" y="628" type="curve" smooth="yes"/>
      <point x="111" y="655"/>
      <point x="135" y="668"/>
      <point x="248" y="665" type="curve"/>
      <point x="248" y="667"/>
      <point x="248" y="668"/>
      <point x="248" y="670" type="curve" smooth="yes"/>
      <point x="248" y="736"/>
      <point x="195" y="788"/>
      <point x="94" y="758" type="curve" smooth="yes"/>
      <point x="2" y="730"/>
      <point x="-5" y="655"/>
      <point x="30" y="586" type="curve" smooth="yes"/>
      <point x="61" y="525"/>
      <point x="98" y="476"/>
      <point x="128" y="421" type="curve" smooth="yes"/>
      <point x="155" y="372"/>
      <point x="162" y="347"/>
      <point x="162" y="324" type="curve" smooth="yes"/>
      <point x="162" y="307"/>
      <point x="159" y="282"/>
      <point x="139" y="237" type="curve" smooth="yes"/>
      <point x="111" y="174"/>
      <point x="75" y="116"/>
      <point x="48" y="55" type="curve" smooth="yes"/>
      <point x="28" y="10"/>
      <point x="35" y="-24"/>
    </contour>
    <contour>
      <point x="490" y="532" type="curve" smooth="yes"/>
      <point x="545" y="523"/>
      <point x="566" y="523"/>
      <point x="570" y="545" type="curve" smooth="yes"/>
      <point x="574" y="567"/>
      <point x="561" y="581"/>
      <point x="507" y="596" type="curve" smooth="yes"/>
      <point x="476" y="605"/>
      <point x="435" y="614"/>
      <point x="404" y="620" type="curve" smooth="yes"/>
      <point x="361" y="628"/>
      <point x="331" y="628"/>
      <point x="326" y="603" type="curve" smooth="yes"/>
      <point x="320" y="574"/>
      <point x="340" y="562"/>
      <point x="394" y="550" type="curve" smooth="yes"/>
      <point x="426" y="543"/>
      <point x="458" y="537"/>
    </contour>
    <contour>
      <point x="410" y="430" type="line"/>
      <point x="500" y="398"/>
      <point x="530" y="399"/>
      <point x="538" y="428" type="curve" smooth="yes"/>
      <point x="546" y="458"/>
      <point x="525" y="473"/>
      <point x="428" y="493" type="curve"/>
    </contour>
    <contour>
      <point x="291" y="68" type="curve" smooth="yes"/>
      <point x="318" y="68"/>
      <point x="339" y="89"/>
      <point x="339" y="116" type="curve" smooth="yes"/>
      <point x="339" y="143"/>
      <point x="318" y="164"/>
      <point x="291" y="164" type="curve" smooth="yes"/>
      <point x="264" y="164"/>
      <point x="243" y="143"/>
      <point x="243" y="116" type="curve" smooth="yes"/>
      <point x="243" y="89"/>
      <point x="264" y="68"/>
    </contour>
    <contour>
      <point x="113" y="59" type="curve" smooth="yes"/>
      <point x="126" y="54"/>
      <point x="138" y="56"/>
      <point x="145" y="75" type="curve" smooth="yes"/>
      <point x="151" y="93"/>
      <point x="144" y="108"/>
      <point x="129" y="113" type="curve" smooth="yes"/>
      <point x="126" y="114"/>
      <point x="123" y="115"/>
      <point x="120" y="116" type="curve" smooth="yes"/>
      <point x="105" y="121"/>
      <point x="90" y="119"/>
      <point x="84" y="98" type="curve" smooth="yes"/>
      <point x="78" y="82"/>
      <point x="84" y="72"/>
      <point x="98" y="66" type="curve" smooth="yes"/>
      <point x="103" y="64"/>
      <point x="109" y="61"/>
    </contour>
    <contour>
      <point x="347" y="349" type="curve" smooth="yes"/>
      <point x="347" y="349"/>
      <point x="347" y="349"/>
      <point x="347" y="349" type="curve" smooth="yes"/>
      <point x="347" y="349"/>
      <point x="347" y="349"/>
      <point x="347" y="349" type="curve" smooth="yes"/>
      <point x="347" y="349"/>
      <point x="347" y="349"/>
      <point x="347" y="349" type="curve" smooth="yes"/>
      <point x="347" y="349"/>
      <point x="347" y="349"/>
    </contour>
    <contour>
      <point x="368" y="311" type="curve" smooth="yes"/>
      <point x="368" y="311"/>
      <point x="368" y="311"/>
      <point x="368" y="311" type="curve" smooth="yes"/>
      <point x="368" y="311"/>
      <point x="368" y="311"/>
      <point x="368" y="311" type="curve" smooth="yes"/>
      <point x="368" y="311"/>
      <point x="368" y="311"/>
      <point x="368" y="311" type="curve" smooth="yes"/>
      <point x="368" y="311"/>
      <point x="368" y="311"/>
    </contour>
    <contour>
      <point x="81" y="10" type="curve" smooth="yes"/>
      <point x="88" y="8"/>
      <point x="95" y="13"/>
      <point x="98" y="20" type="curve" smooth="yes"/>
      <point x="102" y="29"/>
      <point x="102" y="40"/>
      <point x="92" y="44" type="curve" smooth="yes"/>
      <point x="88" y="45"/>
      <point x="85" y="47"/>
      <point x="81" y="48" type="curve" smooth="yes"/>
      <point x="73" y="51"/>
      <point x="65" y="44"/>
      <point x="62" y="35" type="curve" smooth="yes"/>
      <point x="59" y="27"/>
      <point x="60" y="16"/>
      <point x="71" y="13" type="curve" smooth="yes"/>
      <point x="74" y="12"/>
      <point x="78" y="11"/>
    </contour>
  </outline>
</glyph>
<glyph name="bracketleft" format="2">
  <advance width="342"/>
  <unicode hex="005B"/>
  <outline>
    <contour>
      <point x="64" y="-73" type="curve" smooth="yes"/>
      <point x="63" y="-135"/>
      <point x="89" y="-166"/>
      <point x="152" y="-166" type="curve" smooth="yes"/>
      <point x="198" y="-165"/>
      <point x="245" y="-163"/>
      <point x="292" y="-159" type="curve" smooth="yes"/>
      <point x="334" y="-155"/>
      <point x="347" y="-135"/>
      <point x="347" y="-115" type="curve" smooth="yes"/>
      <point x="347" y="-90"/>
      <point x="335" y="-68"/>
      <point x="305" y="-65" type="curve" smooth="yes"/>
      <point x="272" y="-62"/>
      <point x="245" y="-63"/>
      <point x="211" y="-60" type="curve" smooth="yes"/>
      <point x="186" y="-58"/>
      <point x="173" y="-38"/>
      <point x="173" y="4" type="curve" smooth="yes"/>
      <point x="175" y="231"/>
      <point x="174" y="467"/>
      <point x="170" y="695" type="curve" smooth="yes"/>
      <point x="170" y="724"/>
      <point x="181" y="742"/>
      <point x="206" y="746" type="curve" smooth="yes"/>
      <point x="237" y="751"/>
      <point x="266" y="752"/>
      <point x="301" y="758" type="curve" smooth="yes"/>
      <point x="330" y="763"/>
      <point x="343" y="783"/>
      <point x="343" y="804" type="curve" smooth="yes"/>
      <point x="343" y="825"/>
      <point x="328" y="844"/>
      <point x="288" y="848" type="curve" smooth="yes"/>
      <point x="260" y="851"/>
      <point x="198" y="854"/>
      <point x="161" y="853" type="curve" smooth="yes"/>
      <point x="117" y="852"/>
      <point x="89" y="837"/>
      <point x="87" y="781" type="curve" smooth="yes"/>
      <point x="76" y="496"/>
      <point x="69" y="212"/>
    </contour>
  </outline>
</glyph>
<glyph name="bracketright" format="2">
  <advance width="357"/>
  <unicode hex="005D"/>
  <outline>
    <contour>
      <point x="70" y="-172" type="curve" smooth="yes"/>
      <point x="99" y="-172"/>
      <point x="143" y="-171"/>
      <point x="182" y="-169" type="curve" smooth="yes"/>
      <point x="232" y="-166"/>
      <point x="256" y="-140"/>
      <point x="258" y="-92" type="curve" smooth="yes"/>
      <point x="270" y="189"/>
      <point x="277" y="471"/>
      <point x="281" y="752" type="curve" smooth="yes"/>
      <point x="282" y="821"/>
      <point x="263" y="841"/>
      <point x="199" y="841" type="curve" smooth="yes"/>
      <point x="160" y="841"/>
      <point x="112" y="839"/>
      <point x="66" y="834" type="curve" smooth="yes"/>
      <point x="13" y="829"/>
      <point x="-4" y="815"/>
      <point x="-4" y="786" type="curve" smooth="yes"/>
      <point x="-4" y="756"/>
      <point x="14" y="732"/>
      <point x="67" y="732" type="curve" smooth="yes"/>
      <point x="84" y="732"/>
      <point x="96" y="732"/>
      <point x="110" y="732" type="curve" smooth="yes"/>
      <point x="142" y="732"/>
      <point x="159" y="722"/>
      <point x="160" y="681" type="curve" smooth="yes"/>
      <point x="163" y="448"/>
      <point x="167" y="215"/>
      <point x="174" y="-18" type="curve" smooth="yes"/>
      <point x="175" y="-57"/>
      <point x="163" y="-71"/>
      <point x="129" y="-67" type="curve" smooth="yes"/>
      <point x="111" y="-65"/>
      <point x="91" y="-63"/>
      <point x="70" y="-62" type="curve" smooth="yes"/>
      <point x="23" y="-59"/>
      <point x="-5" y="-75"/>
      <point x="-5" y="-115" type="curve" smooth="yes"/>
      <point x="-5" y="-157"/>
      <point x="17" y="-172"/>
    </contour>
  </outline>
</glyph>
<glyph name="grave" format="2">
  <advance width="245"/>
  <unicode hex="0060"/>
  <outline>
    <contour>
      <point x="133" y="395" type="curve" smooth="yes"/>
      <point x="147" y="367"/>
      <point x="171" y="350"/>
      <point x="197" y="362" type="curve" smooth="yes"/>
      <point x="224" y="373"/>
      <point x="224" y="396"/>
      <point x="213" y="435" type="curve" smooth="yes"/>
      <point x="194" y="506"/>
      <point x="169" y="584"/>
      <point x="142" y="661" type="curve" smooth="yes"/>
      <point x="126" y="707"/>
      <point x="99" y="727"/>
      <point x="57" y="711" type="curve" smooth="yes"/>
      <point x="19" y="697"/>
      <point x="12" y="665"/>
      <point x="34" y="613" type="curve" smooth="yes"/>
      <point x="66" y="537"/>
      <point x="101" y="462"/>
    </contour>
  </outline>
</glyph>
<glyph name="asciitilde" format="2">
  <advance width="472"/>
  <unicode hex="007E"/>
  <outline>
    <contour>
      <point x="31" y="292" type="curve" smooth="yes"/>
      <point x="29" y="252"/>
      <point x="44" y="235"/>
      <point x="69" y="235" type="curve" smooth="yes"/>
      <point x="89" y="235"/>
      <point x="109" y="243"/>
      <point x="112" y="273" type="curve" smooth="yes"/>
      <point x="115" y="305"/>
      <point x="127" y="332"/>
      <point x="156" y="332" type="curve" smooth="yes"/>
      <point x="199" y="332"/>
      <point x="237" y="252"/>
      <point x="312" y="252" type="curve" smooth="yes"/>
      <point x="409" y="252"/>
      <point x="442" y="329"/>
      <point x="446" y="450" type="curve" smooth="yes"/>
      <point x="448" y="497"/>
      <point x="431" y="509"/>
      <point x="406" y="509" type="curve" smooth="yes"/>
      <point x="382" y="509"/>
      <point x="363" y="500"/>
      <point x="362" y="457" type="curve" smooth="yes"/>
      <point x="361" y="403"/>
      <point x="352" y="352"/>
      <point x="315" y="352" type="curve" smooth="yes"/>
      <point x="268" y="352"/>
      <point x="233" y="438"/>
      <point x="145" y="438" type="curve" smooth="yes"/>
      <point x="73" y="438"/>
      <point x="36" y="373"/>
    </contour>
  </outline>
</glyph>
<glyph name="endash" format="2">
  <advance width="381"/>
  <unicode hex="2013"/>
  <outline>
    <contour>
      <point x="88" y="367" type="curve" smooth="yes"/>
      <point x="49" y="364"/>
      <point x="30" y="350"/>
      <point x="30" y="321" type="curve" smooth="yes"/>
      <point x="30" y="292"/>
      <point x="46" y="279"/>
      <point x="87" y="277" type="curve" smooth="yes"/>
      <point x="154" y="273"/>
      <point x="220" y="271"/>
      <point x="287" y="272" type="curve" smooth="yes"/>
      <point x="333" y="273"/>
      <point x="351" y="292"/>
      <point x="351" y="326" type="curve" smooth="yes"/>
      <point x="351" y="361"/>
      <point x="329" y="375"/>
      <point x="289" y="375" type="curve" smooth="yes"/>
      <point x="227" y="375"/>
      <point x="156" y="373"/>
    </contour>
  </outline>
</glyph>
<glyph name="quoteleft" format="2">
  <advance width="260"/>
  <unicode hex="2018"/>
  <outline>
    <contour>
      <point x="216" y="651" type="curve" smooth="yes"/>
      <point x="260" y="682"/>
      <point x="218" y="738"/>
      <point x="175" y="713" type="curve" smooth="yes"/>
      <point x="101" y="670"/>
      <point x="37" y="572"/>
      <point x="37" y="442" type="curve" smooth="yes"/>
      <point x="37" y="373"/>
      <point x="65" y="319"/>
      <point x="136" y="319" type="curve" smooth="yes"/>
      <point x="190" y="319"/>
      <point x="224" y="353"/>
      <point x="224" y="401" type="curve" smooth="yes"/>
      <point x="224" y="490"/>
      <point x="131" y="455"/>
      <point x="131" y="509" type="curve" smooth="yes"/>
      <point x="131" y="561"/>
      <point x="164" y="615"/>
    </contour>
    <contour>
      <point x="144" y="396" type="curve" smooth="yes"/>
      <point x="144" y="396"/>
      <point x="144" y="396"/>
      <point x="144" y="396" type="curve" smooth="yes"/>
      <point x="144" y="396"/>
      <point x="144" y="396"/>
      <point x="144" y="396" type="curve" smooth="yes"/>
      <point x="144" y="396"/>
      <point x="144" y="396"/>
      <point x="144" y="396" type="curve" smooth="yes"/>
      <point x="144" y="396"/>
      <point x="144" y="396"/>
    </contour>
    <contour>
      <point x="147" y="552" type="curve" smooth="yes"/>
      <point x="198" y="530"/>
      <point x="222" y="530"/>
      <point x="230" y="550" type="curve" smooth="yes"/>
      <point x="238" y="571"/>
      <point x="227" y="586"/>
      <point x="174" y="611" type="curve" smooth="yes"/>
      <point x="142" y="627"/>
      <point x="106" y="641"/>
      <point x="89" y="648" type="curve" smooth="yes"/>
      <point x="37" y="668"/>
      <point x="17" y="669"/>
      <point x="8" y="650" type="curve" smooth="yes"/>
      <point x="-1" y="630"/>
      <point x="7" y="611"/>
      <point x="59" y="589" type="curve" smooth="yes"/>
      <point x="80" y="580"/>
      <point x="109" y="568"/>
    </contour>
  </outline>
</glyph>
<glyph name="quotedblleft" format="2">
  <advance width="509"/>
  <unicode hex="201C"/>
  <outline>
    <contour>
      <point x="233" y="651" type="curve" smooth="yes"/>
      <point x="285" y="674"/>
      <point x="251" y="734"/>
      <point x="205" y="715" type="curve" smooth="yes"/>
      <point x="113" y="678"/>
      <point x="42" y="597"/>
      <point x="42" y="448" type="curve" smooth="yes"/>
      <point x="42" y="362"/>
      <point x="76" y="317"/>
      <point x="152" y="317" type="curve" smooth="yes"/>
      <point x="216" y="317"/>
      <point x="253" y="355"/>
      <point x="253" y="412" type="curve" smooth="yes"/>
      <point x="253" y="523"/>
      <point x="143" y="485"/>
      <point x="143" y="539" type="curve" smooth="yes"/>
      <point x="143" y="569"/>
      <point x="172" y="624"/>
    </contour>
    <contour>
      <point x="152" y="456" type="curve" smooth="yes"/>
      <point x="176" y="456"/>
      <point x="195" y="437"/>
      <point x="195" y="413" type="curve" smooth="yes"/>
      <point x="195" y="389"/>
      <point x="176" y="370"/>
      <point x="152" y="370" type="curve" smooth="yes"/>
      <point x="128" y="370"/>
      <point x="109" y="389"/>
      <point x="109" y="413" type="curve" smooth="yes"/>
      <point x="109" y="437"/>
      <point x="128" y="456"/>
    </contour>
    <contour>
      <point x="173" y="567" type="curve" smooth="yes"/>
      <point x="221" y="548"/>
      <point x="241" y="545"/>
      <point x="250" y="563" type="curve" smooth="yes"/>
      <point x="259" y="580"/>
      <point x="249" y="597"/>
      <point x="204" y="621" type="curve" smooth="yes"/>
      <point x="184" y="632"/>
      <point x="145" y="653"/>
      <point x="125" y="661" type="curve" smooth="yes"/>
      <point x="71" y="685"/>
      <point x="51" y="686"/>
      <point x="42" y="668" type="curve" smooth="yes"/>
      <point x="33" y="649"/>
      <point x="43" y="628"/>
      <point x="87" y="607" type="curve" smooth="yes"/>
      <point x="106" y="598"/>
      <point x="152" y="575"/>
    </contour>
    <contour>
      <point x="456" y="632" type="curve" smooth="yes"/>
      <point x="502" y="660"/>
      <point x="464" y="729"/>
      <point x="416" y="701" type="curve" smooth="yes"/>
      <point x="335" y="653"/>
      <point x="285" y="586"/>
      <point x="285" y="460" type="curve" smooth="yes"/>
      <point x="285" y="385"/>
      <point x="316" y="325"/>
      <point x="386" y="325" type="curve" smooth="yes"/>
      <point x="438" y="325"/>
      <point x="472" y="356"/>
      <point x="472" y="407" type="curve" smooth="yes"/>
      <point x="472" y="497"/>
      <point x="383" y="469"/>
      <point x="383" y="534" type="curve" smooth="yes"/>
      <point x="383" y="571"/>
      <point x="409" y="604"/>
    </contour>
    <contour>
      <point x="390" y="427" type="curve" smooth="yes"/>
      <point x="390" y="427"/>
      <point x="390" y="427"/>
      <point x="390" y="427" type="curve" smooth="yes"/>
      <point x="390" y="427"/>
      <point x="390" y="427"/>
      <point x="390" y="427" type="curve" smooth="yes"/>
      <point x="390" y="427"/>
      <point x="390" y="427"/>
      <point x="390" y="427" type="curve" smooth="yes"/>
      <point x="390" y="427"/>
      <point x="390" y="427"/>
    </contour>
    <contour>
      <point x="349" y="578" type="curve" smooth="yes"/>
      <point x="359" y="572"/>
      <point x="368" y="574"/>
      <point x="380" y="595" type="curve" smooth="yes"/>
      <point x="390" y="613"/>
      <point x="388" y="625"/>
      <point x="383" y="629" type="curve" smooth="yes"/>
      <point x="379" y="632"/>
      <point x="379" y="632"/>
      <point x="373" y="635" type="curve" smooth="yes"/>
      <point x="363" y="640"/>
      <point x="352" y="641"/>
      <point x="341" y="621" type="curve" smooth="yes"/>
      <point x="330" y="600"/>
      <point x="332" y="592"/>
      <point x="340" y="585" type="curve" smooth="yes"/>
      <point x="344" y="582"/>
      <point x="345" y="581"/>
    </contour>
  </outline>
</glyph>
<glyph name="quotedblright" format="2">
  <advance width="509"/>
  <unicode hex="201D"/>
  <outline>
    <contour>
      <point x="296" y="353" type="curve" smooth="yes"/>
      <point x="255" y="322"/>
      <point x="303" y="263"/>
      <point x="347" y="295" type="curve" smooth="yes"/>
      <point x="419" y="347"/>
      <point x="483" y="426"/>
      <point x="483" y="570" type="curve" smooth="yes"/>
      <point x="483" y="649"/>
      <point x="453" y="702"/>
      <point x="379" y="702" type="curve" smooth="yes"/>
      <point x="325" y="702"/>
      <point x="290" y="670"/>
      <point x="290" y="619" type="curve" smooth="yes"/>
      <point x="290" y="527"/>
      <point x="381" y="556"/>
      <point x="381" y="490" type="curve" smooth="yes"/>
      <point x="381" y="446"/>
      <point x="344" y="390"/>
    </contour>
    <contour>
      <point x="374" y="597" type="curve" smooth="yes"/>
      <point x="374" y="597"/>
      <point x="374" y="597"/>
      <point x="374" y="597" type="curve" smooth="yes"/>
      <point x="374" y="597"/>
      <point x="374" y="597"/>
      <point x="374" y="597" type="curve" smooth="yes"/>
      <point x="374" y="597"/>
      <point x="374" y="597"/>
      <point x="374" y="597" type="curve" smooth="yes"/>
      <point x="374" y="597"/>
      <point x="374" y="597"/>
    </contour>
    <contour>
      <point x="415" y="446" type="curve" smooth="yes"/>
      <point x="405" y="452"/>
      <point x="396" y="450"/>
      <point x="384" y="429" type="curve" smooth="yes"/>
      <point x="374" y="411"/>
      <point x="376" y="399"/>
      <point x="381" y="395" type="curve" smooth="yes"/>
      <point x="385" y="392"/>
      <point x="385" y="392"/>
      <point x="391" y="389" type="curve" smooth="yes"/>
      <point x="401" y="384"/>
      <point x="412" y="383"/>
      <point x="423" y="403" type="curve" smooth="yes"/>
      <point x="434" y="424"/>
      <point x="432" y="432"/>
      <point x="424" y="439" type="curve" smooth="yes"/>
      <point x="420" y="442"/>
      <point x="419" y="443"/>
    </contour>
    <contour>
      <point x="58" y="392" type="curve" smooth="yes"/>
      <point x="6" y="369"/>
      <point x="40" y="309"/>
      <point x="86" y="328" type="curve" smooth="yes"/>
      <point x="178" y="365"/>
      <point x="249" y="446"/>
      <point x="249" y="595" type="curve" smooth="yes"/>
      <point x="249" y="681"/>
      <point x="215" y="726"/>
      <point x="139" y="726" type="curve" smooth="yes"/>
      <point x="75" y="726"/>
      <point x="38" y="688"/>
      <point x="38" y="631" type="curve" smooth="yes"/>
      <point x="38" y="520"/>
      <point x="148" y="558"/>
      <point x="148" y="504" type="curve" smooth="yes"/>
      <point x="148" y="474"/>
      <point x="119" y="419"/>
    </contour>
    <contour>
      <point x="141" y="589" type="curve" smooth="yes"/>
      <point x="118" y="589"/>
      <point x="100" y="607"/>
      <point x="100" y="630" type="curve" smooth="yes"/>
      <point x="100" y="653"/>
      <point x="118" y="671"/>
      <point x="141" y="671" type="curve" smooth="yes"/>
      <point x="164" y="671"/>
      <point x="182" y="653"/>
      <point x="182" y="630" type="curve" smooth="yes"/>
      <point x="182" y="607"/>
      <point x="164" y="589"/>
    </contour>
    <contour>
      <point x="140" y="462" type="curve" smooth="yes"/>
      <point x="98" y="488"/>
      <point x="77" y="496"/>
      <point x="64" y="480" type="curve" smooth="yes"/>
      <point x="52" y="464"/>
      <point x="61" y="444"/>
      <point x="100" y="414" type="curve" smooth="yes"/>
      <point x="117" y="401"/>
      <point x="135" y="387"/>
      <point x="152" y="376" type="curve" smooth="yes"/>
      <point x="202" y="343"/>
      <point x="222" y="338"/>
      <point x="234" y="354" type="curve" smooth="yes"/>
      <point x="246" y="370"/>
      <point x="241" y="394"/>
      <point x="200" y="423" type="curve" smooth="yes"/>
      <point x="183" y="435"/>
      <point x="158" y="451"/>
    </contour>
  </outline>
</glyph>
<glyph name="guilsinglright" format="2">
  <advance width="331"/>
  <unicode hex="203A"/>
  <outline>
    <contour>
      <point x="134" y="550" type="curve" smooth="yes"/>
      <point x="83" y="612"/>
      <point x="6" y="539"/>
      <point x="47" y="491" type="curve" smooth="yes"/>
      <point x="85" y="447"/>
      <point x="154" y="373"/>
      <point x="192" y="332" type="curve" smooth="yes"/>
      <point x="208" y="314"/>
      <point x="207" y="294"/>
      <point x="191" y="274" type="curve" smooth="yes"/>
      <point x="156" y="232"/>
      <point x="102" y="169"/>
      <point x="66" y="125" type="curve" smooth="yes"/>
      <point x="32" y="84"/>
      <point x="91" y="30"/>
      <point x="129" y="71" type="curve" smooth="yes"/>
      <point x="179" y="125"/>
      <point x="237" y="190"/>
      <point x="280" y="241" type="curve" smooth="yes"/>
      <point x="307" y="273"/>
      <point x="310" y="314"/>
      <point x="285" y="349" type="curve" smooth="yes"/>
      <point x="239" y="414"/>
      <point x="184" y="488"/>
    </contour>
  </outline>
</glyph>
<glyph name="upDownArrow" format="2">
  <advance width="680"/>
  <unicode hex="2195"/>
  <outline>
    <contour>
      <point x="641" y="295" type="curve" smooth="yes"/>
      <point x="624" y="316"/>
      <point x="602" y="311"/>
      <point x="570" y="290" type="curve" smooth="yes"/>
      <point x="521" y="257"/>
      <point x="459" y="201"/>
      <point x="417" y="171" type="curve" smooth="yes"/>
      <point x="395" y="156"/>
      <point x="383" y="161"/>
      <point x="383" y="183" type="curve" smooth="yes"/>
      <point x="379" y="340"/>
      <point x="380" y="399"/>
      <point x="380" y="522" type="curve" smooth="yes"/>
      <point x="380" y="549"/>
      <point x="393" y="551"/>
      <point x="412" y="538" type="curve" smooth="yes"/>
      <point x="449" y="513"/>
      <point x="488" y="479"/>
      <point x="528" y="454" type="curve" smooth="yes"/>
      <point x="567" y="429"/>
      <point x="590" y="422"/>
      <point x="613" y="448" type="curve" smooth="yes"/>
      <point x="637" y="474"/>
      <point x="627" y="513"/>
      <point x="590" y="538" type="curve" smooth="yes"/>
      <point x="542" y="570"/>
      <point x="457" y="619"/>
      <point x="385" y="658" type="curve" smooth="yes"/>
      <point x="348" y="678"/>
      <point x="302" y="676"/>
      <point x="261" y="650" type="curve" smooth="yes"/>
      <point x="191" y="606"/>
      <point x="114" y="551"/>
      <point x="60" y="502" type="curve" smooth="yes"/>
      <point x="36" y="480"/>
      <point x="29" y="451"/>
      <point x="53" y="425" type="curve" smooth="yes"/>
      <point x="77" y="400"/>
      <point x="109" y="410"/>
      <point x="138" y="431" type="curve" smooth="yes"/>
      <point x="170" y="454"/>
      <point x="219" y="494"/>
      <point x="246" y="512" type="curve" smooth="yes"/>
      <point x="269" y="527"/>
      <point x="281" y="521"/>
      <point x="282" y="493" type="curve" smooth="yes"/>
      <point x="285" y="383"/>
      <point x="287" y="332"/>
      <point x="285" y="198" type="curve" smooth="yes"/>
      <point x="284" y="170"/>
      <point x="275" y="167"/>
      <point x="256" y="180" type="curve" smooth="yes"/>
      <point x="215" y="210"/>
      <point x="176" y="246"/>
      <point x="142" y="271" type="curve" smooth="yes"/>
      <point x="102" y="300"/>
      <point x="78" y="310"/>
      <point x="53" y="282" type="curve" smooth="yes"/>
      <point x="31" y="258"/>
      <point x="33" y="222"/>
      <point x="78" y="187" type="curve" smooth="yes"/>
      <point x="119" y="155"/>
      <point x="198" y="99"/>
      <point x="276" y="51" type="curve" smooth="yes"/>
      <point x="316" y="27"/>
      <point x="358" y="23"/>
      <point x="403" y="51" type="curve" smooth="yes"/>
      <point x="476" y="96"/>
      <point x="572" y="169"/>
      <point x="631" y="222" type="curve" smooth="yes"/>
      <point x="653" y="242"/>
      <point x="661" y="271"/>
    </contour>
  </outline>
</glyph>
<glyph name="southEastArrow" format="2">
  <advance width="680"/>
  <unicode hex="2198"/>
  <outline>
    <contour>
      <point x="92" y="626" type="curve" smooth="yes"/>
      <point x="64" y="598"/>
      <point x="62" y="551"/>
      <point x="94" y="512" type="curve" smooth="yes"/>
      <point x="194" y="394"/>
      <point x="310" y="292"/>
      <point x="409" y="171" type="curve" smooth="yes"/>
      <point x="425" y="152"/>
      <point x="415" y="135"/>
      <point x="389" y="135" type="curve" smooth="yes"/>
      <point x="335" y="136"/>
      <point x="254" y="148"/>
      <point x="172" y="154" type="curve" smooth="yes"/>
      <point x="125" y="157"/>
      <point x="96" y="132"/>
      <point x="96" y="96" type="curve" smooth="yes"/>
      <point x="96" y="56"/>
      <point x="117" y="30"/>
      <point x="171" y="30" type="curve" smooth="yes"/>
      <point x="256" y="30"/>
      <point x="410" y="34"/>
      <point x="515" y="44" type="curve" smooth="yes"/>
      <point x="554" y="48"/>
      <point x="585" y="73"/>
      <point x="589" y="114" type="curve" smooth="yes"/>
      <point x="599" y="230"/>
      <point x="611" y="345"/>
      <point x="612" y="445" type="curve" smooth="yes"/>
      <point x="613" y="501"/>
      <point x="585" y="523"/>
      <point x="549" y="523" type="curve" smooth="yes"/>
      <point x="513" y="523"/>
      <point x="480" y="501"/>
      <point x="487" y="440" type="curve" smooth="yes"/>
      <point x="494" y="382"/>
      <point x="508" y="317"/>
      <point x="517" y="244" type="curve" smooth="yes"/>
      <point x="520" y="220"/>
      <point x="502" y="212"/>
      <point x="486" y="231" type="curve" smooth="yes"/>
      <point x="391" y="346"/>
      <point x="308" y="490"/>
      <point x="218" y="598" type="curve" smooth="yes"/>
      <point x="172" y="653"/>
      <point x="119" y="653"/>
    </contour>
  </outline>
</glyph>
<glyph name="southWestArrow" format="2">
  <advance width="680"/>
  <unicode hex="2199"/>
  <outline>
    <contour>
      <point x="611" y="614" type="curve" smooth="yes"/>
      <point x="571" y="647"/>
      <point x="524" y="631"/>
      <point x="481" y="583" type="curve" smooth="yes"/>
      <point x="403" y="495"/>
      <point x="314" y="347"/>
      <point x="217" y="231" type="curve" smooth="yes"/>
      <point x="200" y="211"/>
      <point x="181" y="220"/>
      <point x="183" y="244" type="curve" smooth="yes"/>
      <point x="193" y="349"/>
      <point x="209" y="444"/>
      <point x="213" y="528" type="curve" smooth="yes"/>
      <point x="216" y="591"/>
      <point x="193" y="613"/>
      <point x="161" y="613" type="curve" smooth="yes"/>
      <point x="125" y="613"/>
      <point x="98" y="591"/>
      <point x="98" y="535" type="curve" smooth="yes"/>
      <point x="97" y="408"/>
      <point x="100" y="261"/>
      <point x="110" y="124" type="curve" smooth="yes"/>
      <point x="114" y="73"/>
      <point x="146" y="48"/>
      <point x="195" y="43" type="curve" smooth="yes"/>
      <point x="273" y="35"/>
      <point x="409" y="29"/>
      <point x="478" y="29" type="curve" smooth="yes"/>
      <point x="535" y="29"/>
      <point x="564" y="55"/>
      <point x="564" y="99" type="curve" smooth="yes"/>
      <point x="564" y="138"/>
      <point x="535" y="170"/>
      <point x="488" y="164" type="curve" smooth="yes"/>
      <point x="421" y="155"/>
      <point x="354" y="141"/>
      <point x="310" y="137" type="curve" smooth="yes"/>
      <point x="284" y="135"/>
      <point x="274" y="154"/>
      <point x="290" y="173" type="curve" smooth="yes"/>
      <point x="388" y="289"/>
      <point x="517" y="389"/>
      <point x="610" y="490" type="curve" smooth="yes"/>
      <point x="645" y="528"/>
      <point x="649" y="583"/>
    </contour>
  </outline>
</glyph>
<glyph name="peace" format="2">
  <advance width="724"/>
  <unicode hex="262E"/>
  <outline>
    <contour>
      <point x="30" y="315" type="curve" smooth="yes"/>
      <point x="30" y="95"/>
      <point x="158" y="-35"/>
      <point x="360" y="-35" type="curve" smooth="yes"/>
      <point x="586" y="-35"/>
      <point x="724" y="54"/>
      <point x="724" y="308" type="curve" smooth="yes"/>
      <point x="724" y="571"/>
      <point x="594" y="709"/>
      <point x="386" y="709" type="curve" smooth="yes"/>
      <point x="174" y="709"/>
      <point x="30" y="607"/>
    </contour>
    <contour>
      <point x="117" y="335" type="curve" smooth="yes"/>
      <point x="117" y="506"/>
      <point x="185" y="596"/>
      <point x="284" y="622" type="curve" smooth="yes"/>
      <point x="320" y="631"/>
      <point x="336" y="623"/>
      <point x="336" y="600" type="curve" smooth="yes"/>
      <point x="337" y="542"/>
      <point x="335" y="511"/>
      <point x="331" y="469" type="curve" smooth="yes"/>
      <point x="328" y="440"/>
      <point x="314" y="411"/>
      <point x="301" y="391" type="curve" smooth="yes"/>
      <point x="267" y="339"/>
      <point x="207" y="265"/>
      <point x="161" y="217" type="curve" smooth="yes"/>
      <point x="143" y="198"/>
      <point x="131" y="204"/>
      <point x="127" y="224" type="curve" smooth="yes"/>
      <point x="121" y="253"/>
      <point x="117" y="300"/>
    </contour>
    <contour>
      <point x="209" y="87" type="curve" smooth="yes"/>
      <point x="189" y="103"/>
      <point x="187" y="123"/>
      <point x="198" y="140" type="curve" smooth="yes"/>
      <point x="235" y="194"/>
      <point x="267" y="233"/>
      <point x="293" y="257" type="curve" smooth="yes"/>
      <point x="310" y="272"/>
      <point x="325" y="270"/>
      <point x="329" y="240" type="curve" smooth="yes"/>
      <point x="334" y="193"/>
      <point x="335" y="139"/>
      <point x="335" y="93" type="curve" smooth="yes"/>
      <point x="335" y="59"/>
      <point x="320" y="42"/>
      <point x="283" y="52" type="curve" smooth="yes"/>
      <point x="256" y="60"/>
      <point x="230" y="71"/>
    </contour>
    <contour>
      <point x="451" y="50" type="curve" smooth="yes"/>
      <point x="422" y="46"/>
      <point x="411" y="62"/>
      <point x="410" y="93" type="curve" smooth="yes"/>
      <point x="409" y="134"/>
      <point x="410" y="174"/>
      <point x="413" y="204" type="curve" smooth="yes"/>
      <point x="416" y="231"/>
      <point x="436" y="240"/>
      <point x="457" y="223" type="curve" smooth="yes"/>
      <point x="487" y="199"/>
      <point x="516" y="170"/>
      <point x="545" y="134" type="curve" smooth="yes"/>
      <point x="558" y="118"/>
      <point x="558" y="94"/>
      <point x="537" y="82" type="curve" smooth="yes"/>
      <point x="510" y="67"/>
      <point x="479" y="54"/>
    </contour>
    <contour>
      <point x="412" y="602" type="curve" smooth="yes"/>
      <point x="413" y="627"/>
      <point x="428" y="636"/>
      <point x="472" y="625" type="curve" smooth="yes"/>
      <point x="560" y="605"/>
      <point x="637" y="487"/>
      <point x="637" y="300" type="curve" smooth="yes"/>
      <point x="637" y="266"/>
      <point x="638" y="245"/>
      <point x="632" y="214" type="curve" smooth="yes"/>
      <point x="628" y="192"/>
      <point x="609" y="181"/>
      <point x="598" y="190" type="curve" smooth="yes"/>
      <point x="541" y="237"/>
      <point x="491" y="290"/>
      <point x="448" y="344" type="curve" smooth="yes"/>
      <point x="429" y="368"/>
      <point x="418" y="394"/>
      <point x="416" y="423" type="curve" smooth="yes"/>
      <point x="412" y="484"/>
      <point x="411" y="536"/>
    </contour>
  </outline>
</glyph>
<glyph name="border_1" format="2">
  <advance width="732"/>
  <unicode hex="E000"/>
  <outline>
    <contour>
      <point x="30" y="331" type="curve" smooth="yes"/>
      <point x="11" y="312"/>
      <point x="8" y="293"/>
      <point x="18" y="278" type="curve" smooth="yes"/>
      <point x="28" y="262"/>
      <point x="50" y="257"/>
      <point x="76" y="268" type="curve" smooth="yes"/>
      <point x="119" y="286"/>
      <point x="161" y="314"/>
      <point x="204" y="333" type="curve" smooth="yes"/>
      <point x="226" y="343"/>
      <point x="244" y="341"/>
      <point x="267" y="317" type="curve" smooth="yes"/>
      <point x="318" y="262"/>
      <point x="367" y="195"/>
      <point x="420" y="134" type="curve" smooth="yes"/>
      <point x="469" y="78"/>
      <point x="508" y="71"/>
      <point x="568" y="102" type="curve" smooth="yes"/>
      <point x="605" y="121"/>
      <point x="647" y="146"/>
      <point x="681" y="172" type="curve" smooth="yes"/>
      <point x="726" y="206"/>
      <point x="726" y="245"/>
      <point x="704" y="271" type="curve" smooth="yes"/>
      <point x="686" y="293"/>
      <point x="656" y="297"/>
      <point x="620" y="278" type="curve" smooth="yes"/>
      <point x="588" y="261"/>
      <point x="557" y="231"/>
      <point x="526" y="211" type="curve" smooth="yes"/>
      <point x="502" y="196"/>
      <point x="484" y="195"/>
      <point x="463" y="221" type="curve" smooth="yes"/>
      <point x="410" y="287"/>
      <point x="367" y="371"/>
      <point x="316" y="436" type="curve" smooth="yes"/>
      <point x="282" y="479"/>
      <point x="235" y="477"/>
      <point x="184" y="447" type="curve" smooth="yes"/>
      <point x="130" y="415"/>
      <point x="75" y="375"/>
    </contour>
    <contour>
      <point x="215" y="28" type="curve" smooth="yes"/>
      <point x="261" y="28"/>
      <point x="298" y="65"/>
      <point x="298" y="112" type="curve" smooth="yes"/>
      <point x="298" y="158"/>
      <point x="261" y="195"/>
      <point x="215" y="195" type="curve" smooth="yes"/>
      <point x="168" y="195"/>
      <point x="131" y="158"/>
      <point x="131" y="112" type="curve" smooth="yes"/>
      <point x="131" y="65"/>
      <point x="168" y="28"/>
    </contour>
    <contour>
      <point x="520" y="350" type="curve" smooth="yes"/>
      <point x="557" y="350"/>
      <point x="588" y="380"/>
      <point x="588" y="418" type="curve" smooth="yes"/>
      <point x="588" y="455"/>
      <point x="557" y="486"/>
      <point x="520" y="486" type="curve" smooth="yes"/>
      <point x="482" y="486"/>
      <point x="452" y="455"/>
      <point x="452" y="418" type="curve" smooth="yes"/>
      <point x="452" y="380"/>
      <point x="482" y="350"/>
    </contour>
  </outline>
</glyph>
<glyph name="border_2" format="2">
  <advance width="615"/>
  <unicode hex="E001"/>
  <outline>
    <contour>
      <point x="207" y="81" type="curve" smooth="yes"/>
      <point x="207" y="132"/>
      <point x="226" y="190"/>
      <point x="226" y="241" type="curve" smooth="yes"/>
      <point x="226" y="358"/>
      <point x="30" y="325"/>
      <point x="30" y="425" type="curve" smooth="yes"/>
      <point x="30" y="515"/>
      <point x="158" y="562"/>
      <point x="262" y="562" type="curve" smooth="yes"/>
      <point x="344" y="562"/>
      <point x="422" y="529"/>
      <point x="422" y="446" type="curve" smooth="yes"/>
      <point x="422" y="394"/>
      <point x="396" y="333"/>
      <point x="396" y="280" type="curve" smooth="yes"/>
      <point x="396" y="147"/>
      <point x="575" y="237"/>
      <point x="575" y="121" type="curve" smooth="yes"/>
      <point x="575" y="44"/>
      <point x="441" y="-34"/>
      <point x="335" y="-34" type="curve" smooth="yes"/>
      <point x="260" y="-34"/>
      <point x="207" y="2"/>
    </contour>
    <contour>
      <point x="89" y="123" type="curve" smooth="yes"/>
      <point x="31" y="123"/>
      <point x="16" y="164"/>
      <point x="16" y="215" type="curve" smooth="yes"/>
      <point x="16" y="253"/>
      <point x="40" y="285"/>
      <point x="76" y="285" type="curve" smooth="yes"/>
      <point x="121" y="285"/>
      <point x="159" y="254"/>
      <point x="159" y="208" type="curve" smooth="yes"/>
      <point x="159" y="170"/>
      <point x="139" y="123"/>
    </contour>
    <contour>
      <point x="544" y="263" type="curve" smooth="yes"/>
      <point x="491" y="263"/>
      <point x="472" y="289"/>
      <point x="472" y="332" type="curve" smooth="yes"/>
      <point x="472" y="365"/>
      <point x="501" y="408"/>
      <point x="541" y="408" type="curve" smooth="yes"/>
      <point x="571" y="408"/>
      <point x="602" y="373"/>
      <point x="602" y="321" type="curve" smooth="yes"/>
      <point x="602" y="284"/>
      <point x="583" y="263"/>
    </contour>
  </outline>
</glyph>
<glyph name="border_3" format="2">
  <advance width="688"/>
  <unicode hex="E002"/>
  <outline>
    <contour>
      <point x="652" y="131" type="curve" smooth="yes"/>
      <point x="637" y="174"/>
      <point x="627" y="217"/>
      <point x="613" y="260" type="curve" smooth="yes"/>
      <point x="598" y="306"/>
      <point x="541" y="311"/>
      <point x="508" y="272" type="curve" smooth="yes"/>
      <point x="463" y="218"/>
      <point x="424" y="160"/>
      <point x="382" y="109" type="curve" smooth="yes"/>
      <point x="369" y="93"/>
      <point x="357" y="91"/>
      <point x="351" y="112" type="curve" smooth="yes"/>
      <point x="340" y="154"/>
      <point x="330" y="196"/>
      <point x="323" y="238" type="curve" smooth="yes"/>
      <point x="320" y="256"/>
      <point x="327" y="270"/>
      <point x="342" y="278" type="curve" smooth="yes"/>
      <point x="421" y="322"/>
      <point x="500" y="357"/>
      <point x="579" y="401" type="curve" smooth="yes"/>
      <point x="630" y="429"/>
      <point x="632" y="478"/>
      <point x="594" y="518" type="curve" smooth="yes"/>
      <point x="537" y="579"/>
      <point x="475" y="636"/>
      <point x="413" y="689" type="curve" smooth="yes"/>
      <point x="390" y="709"/>
      <point x="370" y="714"/>
      <point x="334" y="704" type="curve" smooth="yes"/>
      <point x="247" y="680"/>
      <point x="162" y="654"/>
      <point x="77" y="624" type="curve" smooth="yes"/>
      <point x="24" y="605"/>
      <point x="21" y="556"/>
      <point x="59" y="520" type="curve" smooth="yes"/>
      <point x="88" y="493"/>
      <point x="125" y="470"/>
      <point x="153" y="444" type="curve" smooth="yes"/>
      <point x="165" y="433"/>
      <point x="166" y="425"/>
      <point x="155" y="418" type="curve" smooth="yes"/>
      <point x="119" y="395"/>
      <point x="83" y="381"/>
      <point x="49" y="359" type="curve" smooth="yes"/>
      <point x="16" y="338"/>
      <point x="8" y="314"/>
      <point x="30" y="274" type="curve" smooth="yes"/>
      <point x="50" y="237"/>
      <point x="77" y="205"/>
      <point x="97" y="168" type="curve" smooth="yes"/>
      <point x="105" y="154"/>
      <point x="102" y="144"/>
      <point x="87" y="139" type="curve" smooth="yes"/>
      <point x="55" y="129"/>
      <point x="22" y="124"/>
      <point x="-10" y="114" type="curve" smooth="yes"/>
      <point x="-31" y="107"/>
      <point x="-35" y="88"/>
      <point x="-28" y="70" type="curve" smooth="yes"/>
      <point x="-21" y="52"/>
      <point x="-7" y="42"/>
      <point x="20" y="51" type="curve" smooth="yes"/>
      <point x="64" y="65"/>
      <point x="109" y="81"/>
      <point x="153" y="98" type="curve" smooth="yes"/>
      <point x="181" y="109"/>
      <point x="184" y="135"/>
      <point x="170" y="168" type="curve" smooth="yes"/>
      <point x="152" y="211"/>
      <point x="125" y="252"/>
      <point x="106" y="292" type="curve" smooth="yes"/>
      <point x="98" y="308"/>
      <point x="99" y="316"/>
      <point x="117" y="326" type="curve" smooth="yes"/>
      <point x="156" y="348"/>
      <point x="199" y="361"/>
      <point x="240" y="383" type="curve" smooth="yes"/>
      <point x="273" y="401"/>
      <point x="277" y="434"/>
      <point x="245" y="465" type="curve" smooth="yes"/>
      <point x="214" y="495"/>
      <point x="177" y="517"/>
      <point x="146" y="545" type="curve" smooth="yes"/>
      <point x="130" y="559"/>
      <point x="133" y="574"/>
      <point x="152" y="579" type="curve" smooth="yes"/>
      <point x="206" y="594"/>
      <point x="260" y="608"/>
      <point x="314" y="617" type="curve" smooth="yes"/>
      <point x="346" y="622"/>
      <point x="360" y="620"/>
      <point x="387" y="599" type="curve" smooth="yes"/>
      <point x="425" y="570"/>
      <point x="463" y="539"/>
      <point x="500" y="503" type="curve" smooth="yes"/>
      <point x="519" y="484"/>
      <point x="516" y="469"/>
      <point x="501" y="460" type="curve" smooth="yes"/>
      <point x="428" y="413"/>
      <point x="354" y="374"/>
      <point x="282" y="327" type="curve" smooth="yes"/>
      <point x="230" y="293"/>
      <point x="223" y="269"/>
      <point x="242" y="203" type="curve" smooth="yes"/>
      <point x="259" y="145"/>
      <point x="280" y="85"/>
      <point x="303" y="28" type="curve" smooth="yes"/>
      <point x="319" y="-13"/>
      <point x="371" y="-11"/>
      <point x="401" y="22" type="curve" smooth="yes"/>
      <point x="447" y="73"/>
      <point x="491" y="129"/>
      <point x="536" y="179" type="curve" smooth="yes"/>
      <point x="551" y="196"/>
      <point x="567" y="190"/>
      <point x="574" y="159" type="curve" smooth="yes"/>
      <point x="579" y="137"/>
      <point x="580" y="112"/>
      <point x="585" y="86" type="curve" smooth="yes"/>
      <point x="592" y="44"/>
      <point x="619" y="25"/>
      <point x="657" y="35" type="curve" smooth="yes"/>
      <point x="683" y="42"/>
      <point x="711" y="51"/>
      <point x="738" y="61" type="curve" smooth="yes"/>
      <point x="756" y="68"/>
      <point x="756" y="89"/>
      <point x="749" y="107" type="curve" smooth="yes"/>
      <point x="742" y="125"/>
      <point x="728" y="126"/>
      <point x="710" y="122" type="curve" smooth="yes"/>
      <point x="700" y="120"/>
      <point x="689" y="117"/>
      <point x="678" y="115" type="curve" smooth="yes"/>
      <point x="663" y="112"/>
      <point x="658" y="115"/>
    </contour>
  </outline>
</glyph>
<glyph name="border_4" format="2">
  <advance width="1395"/>
  <unicode hex="E003"/>
  <outline>
    <contour>
      <point x="-65" y="229" type="curve" smooth="yes"/>
      <point x="-39" y="200"/>
      <point x="-7" y="212"/>
      <point x="14" y="233" type="curve" smooth="yes"/>
      <point x="43" y="262"/>
      <point x="69" y="292"/>
      <point x="120" y="338" type="curve" smooth="yes"/>
      <point x="143" y="359"/>
      <point x="172" y="355"/>
      <point x="193" y="331" type="curve" smooth="yes"/>
      <point x="247" y="267"/>
      <point x="313" y="179"/>
      <point x="376" y="110" type="curve" smooth="yes"/>
      <point x="421" y="61"/>
      <point x="489" y="59"/>
      <point x="549" y="108" type="curve" smooth="yes"/>
      <point x="682" y="218"/>
      <point x="768" y="298"/>
      <point x="862" y="376" type="curve" smooth="yes"/>
      <point x="890" y="399"/>
      <point x="915" y="396"/>
      <point x="936" y="370" type="curve" smooth="yes"/>
      <point x="989" y="306"/>
      <point x="1044" y="224"/>
      <point x="1115" y="131" type="curve" smooth="yes"/>
      <point x="1157" y="76"/>
      <point x="1207" y="70"/>
      <point x="1260" y="107" type="curve" smooth="yes"/>
      <point x="1292" y="130"/>
      <point x="1352" y="180"/>
      <point x="1409" y="232" type="curve" smooth="yes"/>
      <point x="1444" y="264"/>
      <point x="1446" y="297"/>
      <point x="1428" y="319" type="curve" smooth="yes"/>
      <point x="1406" y="345"/>
      <point x="1372" y="335"/>
      <point x="1346" y="315" type="curve" smooth="yes"/>
      <point x="1322" y="296"/>
      <point x="1283" y="261"/>
      <point x="1216" y="214" type="curve" smooth="yes"/>
      <point x="1192" y="197"/>
      <point x="1172" y="196"/>
      <point x="1153" y="224" type="curve" smooth="yes"/>
      <point x="1108" y="291"/>
      <point x="1042" y="407"/>
      <point x="990" y="482" type="curve" smooth="yes"/>
      <point x="959" y="526"/>
      <point x="896" y="534"/>
      <point x="853" y="500" type="curve" smooth="yes"/>
      <point x="742" y="411"/>
      <point x="623" y="297"/>
      <point x="530" y="222" type="curve" smooth="yes"/>
      <point x="504" y="201"/>
      <point x="475" y="203"/>
      <point x="455" y="222" type="curve" smooth="yes"/>
      <point x="380" y="292"/>
      <point x="310" y="370"/>
      <point x="244" y="432" type="curve" smooth="yes"/>
      <point x="202" y="472"/>
      <point x="156" y="472"/>
      <point x="110" y="441" type="curve" smooth="yes"/>
      <point x="51" y="401"/>
      <point x="-1" y="356"/>
      <point x="-52" y="311" type="curve" smooth="yes"/>
      <point x="-73" y="293"/>
      <point x="-88" y="254"/>
    </contour>
  </outline>
</glyph>
<glyph name="border_5" format="2">
  <advance width="760"/>
  <unicode hex="E004"/>
  <outline>
    <contour>
      <point x="236" y="111" type="curve" smooth="yes"/>
      <point x="331" y="107"/>
      <point x="437" y="105"/>
      <point x="542" y="113" type="curve" smooth="yes"/>
      <point x="574" y="115"/>
      <point x="595" y="129"/>
      <point x="596" y="168" type="curve" smooth="yes"/>
      <point x="600" y="286"/>
      <point x="600" y="403"/>
      <point x="594" y="515" type="curve" smooth="yes"/>
      <point x="592" y="551"/>
      <point x="578" y="570"/>
      <point x="541" y="569" type="curve" smooth="yes"/>
      <point x="440" y="566"/>
      <point x="328" y="559"/>
      <point x="225" y="549" type="curve" smooth="yes"/>
      <point x="190" y="546"/>
      <point x="174" y="531"/>
      <point x="172" y="490" type="curve" smooth="yes"/>
      <point x="168" y="389"/>
      <point x="168" y="279"/>
      <point x="171" y="175" type="curve" smooth="yes"/>
      <point x="173" y="128"/>
      <point x="193" y="113"/>
    </contour>
    <contour>
      <point x="273" y="168" type="curve" smooth="yes"/>
      <point x="242" y="171"/>
      <point x="237" y="177"/>
      <point x="234" y="212" type="curve" smooth="yes"/>
      <point x="228" y="293"/>
      <point x="225" y="385"/>
      <point x="227" y="466" type="curve" smooth="yes"/>
      <point x="227" y="488"/>
      <point x="235" y="499"/>
      <point x="257" y="501" type="curve" smooth="yes"/>
      <point x="339" y="509"/>
      <point x="435" y="516"/>
      <point x="514" y="517" type="curve" smooth="yes"/>
      <point x="536" y="517"/>
      <point x="543" y="506"/>
      <point x="543" y="482" type="curve" smooth="yes"/>
      <point x="543" y="394"/>
      <point x="539" y="295"/>
      <point x="531" y="197" type="curve" smooth="yes"/>
      <point x="529" y="171"/>
      <point x="516" y="159"/>
      <point x="491" y="159" type="curve" smooth="yes"/>
      <point x="420" y="158"/>
      <point x="335" y="163"/>
    </contour>
    <contour>
      <point x="316" y="223" type="curve" smooth="yes"/>
      <point x="360" y="218"/>
      <point x="410" y="215"/>
      <point x="453" y="216" type="curve" smooth="yes"/>
      <point x="475" y="217"/>
      <point x="486" y="227"/>
      <point x="487" y="251" type="curve" smooth="yes"/>
      <point x="490" y="303"/>
      <point x="490" y="364"/>
      <point x="487" y="416" type="curve" smooth="yes"/>
      <point x="486" y="435"/>
      <point x="479" y="445"/>
      <point x="457" y="447" type="curve" smooth="yes"/>
      <point x="413" y="451"/>
      <point x="358" y="453"/>
      <point x="313" y="452" type="curve" smooth="yes"/>
      <point x="294" y="451"/>
      <point x="284" y="443"/>
      <point x="283" y="419" type="curve" smooth="yes"/>
      <point x="281" y="368"/>
      <point x="281" y="308"/>
      <point x="284" y="255" type="curve" smooth="yes"/>
      <point x="285" y="232"/>
      <point x="294" y="225"/>
    </contour>
    <contour>
      <point x="347" y="274" type="curve" smooth="yes"/>
      <point x="337" y="276"/>
      <point x="330" y="278"/>
      <point x="330" y="291" type="curve" smooth="yes"/>
      <point x="330" y="324"/>
      <point x="333" y="358"/>
      <point x="337" y="384" type="curve" smooth="yes"/>
      <point x="339" y="398"/>
      <point x="342" y="403"/>
      <point x="354" y="404" type="curve" smooth="yes"/>
      <point x="373" y="405"/>
      <point x="398" y="404"/>
      <point x="415" y="401" type="curve" smooth="yes"/>
      <point x="426" y="399"/>
      <point x="431" y="394"/>
      <point x="433" y="382" type="curve" smooth="yes"/>
      <point x="439" y="353"/>
      <point x="443" y="319"/>
      <point x="444" y="288" type="curve" smooth="yes"/>
      <point x="444" y="272"/>
      <point x="437" y="268"/>
      <point x="423" y="268" type="curve" smooth="yes"/>
      <point x="397" y="268"/>
      <point x="369" y="270"/>
    </contour>
    <contour>
      <point x="145" y="-44" type="curve" smooth="yes"/>
      <point x="301" y="-47"/>
      <point x="475" y="-43"/>
      <point x="637" y="-27" type="curve" smooth="yes"/>
      <point x="698" y="-21"/>
      <point x="732" y="1"/>
      <point x="732" y="75" type="curve" smooth="yes"/>
      <point x="731" y="254"/>
      <point x="722" y="443"/>
      <point x="704" y="625" type="curve" smooth="yes"/>
      <point x="699" y="679"/>
      <point x="674" y="705"/>
      <point x="619" y="705" type="curve" smooth="yes"/>
      <point x="453" y="704"/>
      <point x="272" y="696"/>
      <point x="109" y="679" type="curve" smooth="yes"/>
      <point x="58" y="674"/>
      <point x="35" y="651"/>
      <point x="34" y="602" type="curve" smooth="yes"/>
      <point x="30" y="417"/>
      <point x="31" y="231"/>
      <point x="43" y="46" type="curve" smooth="yes"/>
      <point x="47" y="-18"/>
      <point x="78" y="-43"/>
    </contour>
    <contour>
      <point x="159" y="37" type="curve" smooth="yes"/>
      <point x="138" y="37"/>
      <point x="128" y="47"/>
      <point x="125" y="80" type="curve" smooth="yes"/>
      <point x="111" y="244"/>
      <point x="104" y="408"/>
      <point x="102" y="572" type="curve" smooth="yes"/>
      <point x="102" y="595"/>
      <point x="110" y="611"/>
      <point x="134" y="612" type="curve" smooth="yes"/>
      <point x="291" y="620"/>
      <point x="448" y="624"/>
      <point x="605" y="623" type="curve" smooth="yes"/>
      <point x="626" y="623"/>
      <point x="632" y="607"/>
      <point x="634" y="584" type="curve" smooth="yes"/>
      <point x="647" y="426"/>
      <point x="656" y="269"/>
      <point x="658" y="111" type="curve" smooth="yes"/>
      <point x="659" y="69"/>
      <point x="635" y="50"/>
      <point x="614" y="49" type="curve" smooth="yes"/>
      <point x="462" y="40"/>
      <point x="311" y="37"/>
    </contour>
  </outline>
</glyph>
<glyph name="border_6" format="2">
  <advance width="491"/>
  <unicode hex="E005"/>
  <outline>
    <contour>
      <point x="419" y="-37" type="curve" smooth="yes"/>
      <point x="322" y="-43"/>
      <point x="224" y="-45"/>
      <point x="127" y="-44" type="curve" smooth="yes"/>
      <point x="75" y="-43"/>
      <point x="47" y="-23"/>
      <point x="45" y="41" type="curve" smooth="yes"/>
      <point x="38" y="230"/>
      <point x="38" y="419"/>
      <point x="47" y="608" type="curve" smooth="yes"/>
      <point x="49" y="657"/>
      <point x="72" y="677"/>
      <point x="113" y="678" type="curve" smooth="yes"/>
      <point x="216" y="681"/>
      <point x="318" y="679"/>
      <point x="421" y="672" type="curve" smooth="yes"/>
      <point x="441" y="671"/>
      <point x="454" y="665"/>
      <point x="454" y="649" type="curve" smooth="yes"/>
      <point x="454" y="631"/>
      <point x="441" y="623"/>
      <point x="424" y="619" type="curve" smooth="yes"/>
      <point x="348" y="602"/>
      <point x="271" y="593"/>
      <point x="198" y="578" type="curve" smooth="yes"/>
      <point x="181" y="575"/>
      <point x="171" y="567"/>
      <point x="171" y="553" type="curve" smooth="yes"/>
      <point x="171" y="540"/>
      <point x="179" y="534"/>
      <point x="196" y="530" type="curve" smooth="yes"/>
      <point x="253" y="518"/>
      <point x="310" y="506"/>
      <point x="369" y="493" type="curve" smooth="yes"/>
      <point x="384" y="490"/>
      <point x="394" y="482"/>
      <point x="394" y="467" type="curve" smooth="yes"/>
      <point x="393" y="452"/>
      <point x="385" y="445"/>
      <point x="369" y="442" type="curve" smooth="yes"/>
      <point x="306" y="429"/>
      <point x="242" y="425"/>
      <point x="179" y="413" type="curve" smooth="yes"/>
      <point x="164" y="410"/>
      <point x="156" y="403"/>
      <point x="156" y="389" type="curve" smooth="yes"/>
      <point x="156" y="376"/>
      <point x="164" y="368"/>
      <point x="180" y="366" type="curve" smooth="yes"/>
      <point x="265" y="353"/>
      <point x="354" y="347"/>
      <point x="435" y="335" type="curve" smooth="yes"/>
      <point x="452" y="332"/>
      <point x="462" y="326"/>
      <point x="462" y="311" type="curve" smooth="yes"/>
      <point x="462" y="297"/>
      <point x="452" y="290"/>
      <point x="435" y="288" type="curve" smooth="yes"/>
      <point x="359" y="278"/>
      <point x="280" y="273"/>
      <point x="200" y="263" type="curve" smooth="yes"/>
      <point x="183" y="261"/>
      <point x="174" y="253"/>
      <point x="174" y="239" type="curve" smooth="yes"/>
      <point x="174" y="223"/>
      <point x="183" y="215"/>
      <point x="200" y="212" type="curve" smooth="yes"/>
      <point x="260" y="200"/>
      <point x="323" y="193"/>
      <point x="384" y="180" type="curve" smooth="yes"/>
      <point x="404" y="176"/>
      <point x="412" y="170"/>
      <point x="412" y="154" type="curve" smooth="yes"/>
      <point x="412" y="139"/>
      <point x="403" y="132"/>
      <point x="385" y="129" type="curve" smooth="yes"/>
      <point x="321" y="118"/>
      <point x="257" y="116"/>
      <point x="193" y="106" type="curve" smooth="yes"/>
      <point x="177" y="104"/>
      <point x="169" y="98"/>
      <point x="169" y="85" type="curve" smooth="yes"/>
      <point x="169" y="73"/>
      <point x="176" y="68"/>
      <point x="191" y="64" type="curve" smooth="yes"/>
      <point x="267" y="45"/>
      <point x="346" y="35"/>
      <point x="423" y="16" type="curve" smooth="yes"/>
      <point x="441" y="12"/>
      <point x="451" y="3"/>
      <point x="451" y="-12" type="curve" smooth="yes"/>
      <point x="451" y="-29"/>
      <point x="440" y="-36"/>
    </contour>
  </outline>
</glyph>
<glyph name="X.001" format="2">
  <advance width="576"/>
  <anchor x="289" y="-8" name="bottom"/>
  <anchor x="349" y="707" name="top"/>
  <outline>
    <contour>
      <point x="39" y="28" type="line" smooth="yes"/>
      <point x="11" y="-35"/>
      <point x="95" y="-65"/>
      <point x="120" y="-9" type="curve" smooth="yes"/>
      <point x="219" y="214" type="line" smooth="yes"/>
      <point x="241" y="264"/>
      <point x="262" y="280"/>
      <point x="294" y="280" type="curve" smooth="yes"/>
      <point x="330" y="280"/>
      <point x="347" y="260"/>
      <point x="368" y="209" type="curve" smooth="yes"/>
      <point x="435" y="47" type="line" smooth="yes"/>
      <point x="470" y="-39"/>
      <point x="577" y="10"/>
      <point x="538" y="83" type="curve" smooth="yes"/>
      <point x="442" y="261" type="line" smooth="yes"/>
      <point x="417" y="307"/>
      <point x="410" y="325"/>
      <point x="410" y="342" type="curve" smooth="yes"/>
      <point x="410" y="360"/>
      <point x="418" y="386"/>
      <point x="436" y="432" type="curve" smooth="yes"/>
      <point x="520" y="641" type="line" smooth="yes"/>
      <point x="542" y="697"/>
      <point x="460" y="715"/>
      <point x="442" y="669" type="curve" smooth="yes"/>
      <point x="348" y="434" type="line" smooth="yes"/>
      <point x="334" y="398"/>
      <point x="318" y="386"/>
      <point x="296" y="386" type="curve" smooth="yes"/>
      <point x="265" y="386"/>
      <point x="248" y="408"/>
      <point x="247" y="449" type="curve" smooth="yes"/>
      <point x="244" y="682" type="line" smooth="yes"/>
      <point x="242" y="831"/>
      <point x="-68" y="763"/>
      <point x="19" y="606" type="curve" smooth="yes"/>
      <point x="123" y="419" type="line" smooth="yes"/>
      <point x="156" y="359"/>
      <point x="162" y="347"/>
      <point x="162" y="324" type="curve" smooth="yes"/>
      <point x="162" y="307"/>
      <point x="156" y="287"/>
      <point x="136" y="242" type="curve" smooth="yes"/>
    </contour>
    <contour>
      <point x="537" y="523" type="line" smooth="yes"/>
      <point x="573" y="516"/>
      <point x="586" y="575"/>
      <point x="550" y="584" type="curve" smooth="yes"/>
      <point x="368" y="628" type="line" smooth="yes"/>
      <point x="321" y="639"/>
      <point x="306" y="567"/>
      <point x="354" y="558" type="curve" smooth="yes"/>
    </contour>
    <contour>
      <point x="487" y="407" type="line" smooth="yes"/>
      <point x="541" y="390"/>
      <point x="561" y="460"/>
      <point x="511" y="472" type="curve" smooth="yes"/>
      <point x="427" y="492" type="line"/>
      <point x="410" y="431" type="line"/>
    </contour>
    <contour>
      <point x="244" y="665" type="curve"/>
      <point x="245" y="609" type="line"/>
      <point x="160" y="597"/>
      <point x="113" y="598"/>
      <point x="112" y="628" type="curve" smooth="yes"/>
      <point x="111" y="655"/>
      <point x="134" y="668"/>
    </contour>
    <contour>
      <point x="246" y="546" type="curve"/>
      <point x="246" y="492" type="line"/>
      <point x="168" y="483"/>
      <point x="145" y="491"/>
      <point x="146" y="521" type="curve" smooth="yes"/>
      <point x="147" y="542"/>
      <point x="166" y="550"/>
    </contour>
    <contour>
      <point x="291" y="68" type="curve" smooth="yes"/>
      <point x="318" y="68"/>
      <point x="339" y="89"/>
      <point x="339" y="116" type="curve" smooth="yes"/>
      <point x="339" y="143"/>
      <point x="318" y="164"/>
      <point x="291" y="164" type="curve" smooth="yes"/>
      <point x="264" y="164"/>
      <point x="243" y="143"/>
      <point x="243" y="116" type="curve" smooth="yes"/>
      <point x="243" y="89"/>
      <point x="264" y="68"/>
    </contour>
    <contour>
      <point x="113" y="60" type="line" smooth="yes"/>
      <point x="146" y="46"/>
      <point x="162" y="102"/>
      <point x="129" y="113" type="curve" smooth="yes"/>
      <point x="120" y="116" type="line" smooth="yes"/>
      <point x="88" y="127"/>
      <point x="64" y="81"/>
      <point x="101" y="65" type="curve" smooth="yes"/>
    </contour>
    <contour>
      <point x="347" y="349" type="curve" smooth="yes"/>
      <point x="347" y="349"/>
      <point x="347" y="349"/>
      <point x="347" y="349" type="curve" smooth="yes"/>
      <point x="347" y="349"/>
      <point x="347" y="349"/>
      <point x="347" y="349" type="curve" smooth="yes"/>
      <point x="347" y="349"/>
      <point x="347" y="349"/>
      <point x="347" y="349" type="curve" smooth="yes"/>
      <point x="347" y="349"/>
      <point x="347" y="349"/>
    </contour>
    <contour>
      <point x="368" y="311" type="curve" smooth="yes"/>
      <point x="368" y="311"/>
      <point x="368" y="311"/>
      <point x="368" y="311" type="curve" smooth="yes"/>
      <point x="368" y="311"/>
      <point x="368" y="311"/>
      <point x="368" y="311" type="curve" smooth="yes"/>
      <point x="368" y="311"/>
      <point x="368" y="311"/>
      <point x="368" y="311" type="curve" smooth="yes"/>
      <point x="368" y="311"/>
      <point x="368" y="311"/>
    </contour>
    <contour>
      <point x="81" y="10" type="line" smooth="yes"/>
      <point x="97" y="5"/>
      <point x="110" y="37"/>
      <point x="92" y="44" type="curve" smooth="yes"/>
      <point x="81" y="48" type="line" smooth="yes"/>
      <point x="64" y="54"/>
      <point x="50" y="19"/>
      <point x="71" y="13" type="curve" smooth="yes"/>
    </contour>
  </outline>
</glyph>
<glyph name="brevecomb.case" format="2">
  <anchor x="193" y="700" name="_top"/>
  <outline>
    <contour>
      <point x="178" y="751" type="curve" smooth="yes"/>
      <point x="253" y="751"/>
      <point x="330" y="783"/>
      <point x="347" y="868" type="curve" smooth="yes"/>
      <point x="355" y="909"/>
      <point x="343" y="937"/>
      <point x="312" y="943" type="curve" smooth="yes"/>
      <point x="282" y="949"/>
      <point x="257" y="934"/>
      <point x="247" y="894" type="curve" smooth="yes"/>
      <point x="235" y="847"/>
      <point x="212" y="825"/>
      <point x="181" y="825" type="curve" smooth="yes"/>
      <point x="145" y="825"/>
      <point x="127" y="853"/>
      <point x="121" y="883" type="curve" smooth="yes"/>
      <point x="114" y="917"/>
      <point x="100" y="937"/>
      <point x="66" y="930" type="curve" smooth="yes"/>
      <point x="33" y="923"/>
      <point x="30" y="891"/>
      <point x="36" y="864" type="curve" smooth="yes"/>
      <point x="52" y="797"/>
      <point x="99" y="751"/>
    </contour>
  </outline>
</glyph>
<glyph name="circumflexcomb.case.alt1" format="2">
  <anchor x="212" y="700" name="_top"/>
  <outline>
    <contour>
      <point x="96" y="786" type="curve" smooth="yes"/>
      <point x="131" y="808"/>
      <point x="168" y="836"/>
      <point x="198" y="856" type="curve" smooth="yes"/>
      <point x="222" y="872"/>
      <point x="238" y="869"/>
      <point x="253" y="850" type="curve" smooth="yes"/>
      <point x="272" y="827"/>
      <point x="295" y="792"/>
      <point x="314" y="769" type="curve" smooth="yes"/>
      <point x="363" y="710"/>
      <point x="437" y="777"/>
      <point x="387" y="833" type="curve" smooth="yes"/>
      <point x="351" y="873"/>
      <point x="308" y="915"/>
      <point x="265" y="953" type="curve" smooth="yes"/>
      <point x="239" y="976"/>
      <point x="197" y="977"/>
      <point x="169" y="952" type="curve" smooth="yes"/>
      <point x="128" y="916"/>
      <point x="89" y="875"/>
      <point x="50" y="831" type="curve" smooth="yes"/>
      <point x="23" y="802"/>
      <point x="54" y="759"/>
    </contour>
  </outline>
</glyph>
<glyph name="circumflexcomb.case" format="2">
  <anchor x="214" y="700" name="_top"/>
  <outline>
    <contour>
      <point x="93" y="754" type="curve" smooth="yes"/>
      <point x="130" y="782"/>
      <point x="194" y="841"/>
      <point x="217" y="858" type="curve" smooth="yes"/>
      <point x="233" y="869"/>
      <point x="245" y="864"/>
      <point x="255" y="853" type="curve" smooth="yes"/>
      <point x="267" y="839"/>
      <point x="282" y="809"/>
      <point x="302" y="783" type="curve" smooth="yes"/>
      <point x="316" y="764"/>
      <point x="340" y="756"/>
      <point x="365" y="773" type="curve" smooth="yes"/>
      <point x="389" y="790"/>
      <point x="385" y="822"/>
      <point x="367" y="845" type="curve" smooth="yes"/>
      <point x="341" y="879"/>
      <point x="310" y="916"/>
      <point x="280" y="946" type="curve" smooth="yes"/>
      <point x="255" y="970"/>
      <point x="211" y="968"/>
      <point x="185" y="946" type="curve" smooth="yes"/>
      <point x="138" y="907"/>
      <point x="86" y="857"/>
      <point x="44" y="811" type="curve" smooth="yes"/>
      <point x="25" y="790"/>
      <point x="22" y="765"/>
      <point x="34" y="752" type="curve" smooth="yes"/>
      <point x="47" y="737"/>
      <point x="70" y="737"/>
    </contour>
  </outline>
</glyph>
<glyph name="dieresiscomb.case" format="2">
  <anchor x="206" y="700" name="_top"/>
  <outline>
    <contour>
      <point x="116" y="746" type="curve" smooth="yes"/>
      <point x="154" y="746"/>
      <point x="185" y="777"/>
      <point x="185" y="817" type="curve" smooth="yes"/>
      <point x="185" y="855"/>
      <point x="154" y="886"/>
      <point x="116" y="886" type="curve" smooth="yes"/>
      <point x="76" y="886"/>
      <point x="45" y="855"/>
      <point x="45" y="817" type="curve" smooth="yes"/>
      <point x="45" y="777"/>
      <point x="76" y="746"/>
    </contour>
    <contour>
      <point x="285" y="758" type="curve" smooth="yes"/>
      <point x="319" y="758"/>
      <point x="347" y="785"/>
      <point x="347" y="821" type="curve" smooth="yes"/>
      <point x="347" y="855"/>
      <point x="319" y="883"/>
      <point x="285" y="883" type="curve" smooth="yes"/>
      <point x="249" y="883"/>
      <point x="222" y="855"/>
      <point x="222" y="821" type="curve" smooth="yes"/>
      <point x="222" y="785"/>
      <point x="249" y="758"/>
    </contour>
  </outline>
</glyph>
<glyph name="dotaccentcomb.case" format="2">
  <anchor x="110" y="700" name="_top"/>
  <outline>
    <contour>
      <point x="110" y="750" type="curve" smooth="yes"/>
      <point x="149" y="750"/>
      <point x="181" y="782"/>
      <point x="181" y="824" type="curve" smooth="yes"/>
      <point x="181" y="863"/>
      <point x="149" y="894"/>
      <point x="110" y="894" type="curve" smooth="yes"/>
      <point x="69" y="894"/>
      <point x="37" y="863"/>
      <point x="37" y="824" type="curve" smooth="yes"/>
      <point x="37" y="782"/>
      <point x="69" y="750"/>
    </contour>
  </outline>
</glyph>
<glyph name="gravecomb.case" format="2">
  <anchor x="208" y="700" name="_top"/>
  <outline>
    <contour>
      <point x="167" y="764" type="curve" smooth="yes"/>
      <point x="188" y="744"/>
      <point x="214" y="737"/>
      <point x="230" y="751" type="curve" smooth="yes"/>
      <point x="246" y="764"/>
      <point x="244" y="789"/>
      <point x="231" y="811" type="curve" smooth="yes"/>
      <point x="202" y="860"/>
      <point x="171" y="908"/>
      <point x="141" y="949" type="curve" smooth="yes"/>
      <point x="113" y="987"/>
      <point x="73" y="993"/>
      <point x="47" y="969" type="curve" smooth="yes"/>
      <point x="22" y="946"/>
      <point x="24" y="911"/>
      <point x="53" y="880" type="curve" smooth="yes"/>
      <point x="90" y="840"/>
      <point x="128" y="802"/>
    </contour>
  </outline>
</glyph>
<glyph name="hungarumlautcomb.case" format="2">
  <anchor x="190" y="700" name="_top"/>
  <outline>
    <contour>
      <point x="171" y="786" type="curve" smooth="yes"/>
      <point x="190" y="823"/>
      <point x="206" y="861"/>
      <point x="226" y="911" type="curve" smooth="yes"/>
      <point x="239" y="945"/>
      <point x="246" y="979"/>
      <point x="215" y="992" type="curve" smooth="yes"/>
      <point x="184" y="1006"/>
      <point x="160" y="989"/>
      <point x="143" y="949" type="curve" smooth="yes"/>
      <point x="126" y="908"/>
      <point x="106" y="856"/>
      <point x="92" y="817" type="curve" smooth="yes"/>
      <point x="83" y="790"/>
      <point x="82" y="769"/>
      <point x="108" y="757" type="curve" smooth="yes"/>
      <point x="134" y="745"/>
      <point x="157" y="760"/>
    </contour>
    <contour>
      <point x="328" y="775" type="curve" smooth="yes"/>
      <point x="353" y="805"/>
      <point x="380" y="839"/>
      <point x="397" y="862" type="curve" smooth="yes"/>
      <point x="419" y="891"/>
      <point x="415" y="921"/>
      <point x="389" y="939" type="curve" smooth="yes"/>
      <point x="363" y="956"/>
      <point x="335" y="945"/>
      <point x="315" y="915" type="curve" smooth="yes"/>
      <point x="300" y="892"/>
      <point x="276" y="851"/>
      <point x="258" y="817" type="curve" smooth="yes"/>
      <point x="241" y="785"/>
      <point x="234" y="761"/>
      <point x="254" y="747" type="curve" smooth="yes"/>
      <point x="277" y="732"/>
      <point x="303" y="745"/>
    </contour>
  </outline>
</glyph>
<glyph name="macroncomb.case" format="2">
  <anchor x="185" y="700" name="_top"/>
  <outline>
    <contour>
      <point x="71" y="845" type="curve" smooth="yes"/>
      <point x="45" y="843"/>
      <point x="24" y="831"/>
      <point x="24" y="802" type="curve" smooth="yes"/>
      <point x="24" y="779"/>
      <point x="44" y="768"/>
      <point x="68" y="766" type="curve" smooth="yes"/>
      <point x="149" y="759"/>
      <point x="238" y="755"/>
      <point x="316" y="754" type="curve" smooth="yes"/>
      <point x="352" y="754"/>
      <point x="370" y="774"/>
      <point x="370" y="805" type="curve" smooth="yes"/>
      <point x="370" y="836"/>
      <point x="351" y="856"/>
      <point x="319" y="856" type="curve" smooth="yes"/>
      <point x="241" y="855"/>
      <point x="152" y="852"/>
    </contour>
  </outline>
</glyph>
<glyph name="ringcomb.case" format="2">
  <anchor x="150" y="700" name="_top"/>
  <outline>
    <contour>
      <point x="141" y="739" type="curve" smooth="yes"/>
      <point x="211" y="739"/>
      <point x="271" y="772"/>
      <point x="271" y="848" type="curve" smooth="yes"/>
      <point x="271" y="915"/>
      <point x="219" y="960"/>
      <point x="147" y="960" type="curve" smooth="yes"/>
      <point x="70" y="960"/>
      <point x="17" y="911"/>
      <point x="17" y="846" type="curve" smooth="yes"/>
      <point x="17" y="778"/>
      <point x="66" y="739"/>
    </contour>
    <contour>
      <point x="140" y="797" type="curve" smooth="yes"/>
      <point x="102" y="797"/>
      <point x="85" y="817"/>
      <point x="85" y="846" type="curve" smooth="yes"/>
      <point x="85" y="878"/>
      <point x="109" y="897"/>
      <point x="144" y="897" type="curve" smooth="yes"/>
      <point x="175" y="897"/>
      <point x="194" y="875"/>
      <point x="194" y="846" type="curve" smooth="yes"/>
      <point x="194" y="816"/>
      <point x="171" y="797"/>
    </contour>
  </outline>
</glyph>
<glyph name="tildecomb.case" format="2">
  <anchor x="201" y="700" name="_top"/>
  <outline>
    <contour>
      <point x="24" y="811" type="curve" smooth="yes"/>
      <point x="14" y="787"/>
      <point x="16" y="759"/>
      <point x="39" y="749" type="curve" smooth="yes"/>
      <point x="63" y="739"/>
      <point x="86" y="747"/>
      <point x="97" y="769" type="curve" smooth="yes"/>
      <point x="109" y="793"/>
      <point x="122" y="804"/>
      <point x="141" y="804" type="curve" smooth="yes"/>
      <point x="175" y="804"/>
      <point x="214" y="739"/>
      <point x="282" y="739" type="curve" smooth="yes"/>
      <point x="328" y="739"/>
      <point x="379" y="764"/>
      <point x="395" y="829" type="curve" smooth="yes"/>
      <point x="404" y="866"/>
      <point x="389" y="890"/>
      <point x="361" y="895" type="curve" smooth="yes"/>
      <point x="331" y="900"/>
      <point x="311" y="882"/>
      <point x="303" y="859" type="curve" smooth="yes"/>
      <point x="295" y="833"/>
      <point x="285" y="823"/>
      <point x="265" y="823" type="curve" smooth="yes"/>
      <point x="218" y="823"/>
      <point x="196" y="887"/>
      <point x="126" y="887" type="curve" smooth="yes"/>
      <point x="82" y="887"/>
      <point x="40" y="852"/>
    </contour>
  </outline>
</glyph>
